<svg width="112" height="93" viewBox="0 0 112 93" fill="none" xmlns="http://www.w3.org/2000/svg">
<path d="M0 70.233C1.17936 61.6766 6.3414 57.2442 8.775 56.0975L8.9856 55.9724V50.9686L9.6174 37.6462C9.6876 37.5211 9.828 32.1421 10.6704 28.5144C11.5128 24.8867 14.6016 22.7601 15.795 22.1972C16.7497 21.7468 17.6904 21.8844 18.0414 22.0095C24.1628 24.2112 26.3952 30.641 26.7462 33.5807C26.1846 33.5598 24.8648 33.5306 24.0786 33.5807C23.2924 33.6307 22.9554 34.5189 22.8852 34.9567L22.2534 38.2091C21.8041 39.5101 20.5218 39.9187 19.9368 39.9604H18.603L19.0944 34.644L18.252 34.2687C17.7138 35.7281 16.5532 39.6477 16.2162 43.6507C15.8792 47.6537 16.0758 51.3648 16.2162 52.7199C16.1039 54.6714 16.5906 55.5762 16.848 55.7847C17.0373 56.0507 17.203 56.3055 17.347 56.5494L17.7606 54.2211L17.6904 41.7743C18.4626 41.8577 20.2597 41.9995 21.2706 41.8994C21.7854 41.7951 22.9975 41.2989 23.7276 40.1481C24.4577 38.9972 24.687 36.5829 24.7104 35.5196L24.9912 35.3945H39.312L37.908 26.638H38.1186L43.173 34.9567C43.4772 35.3945 44.3383 36.2952 45.3492 36.3953H55.1772C56.0898 36.1451 58.0273 34.8816 58.4766 31.8294C58.5468 31.6209 58.7434 31.2039 58.968 31.2039H59.7402L61.425 35.0192H63.7416C64.0224 35.0818 64.6261 35.332 64.7946 35.8323C64.7946 36.3327 64.6542 40.3357 64.584 42.2747C64.584 42.5874 64.3172 43.2754 63.2502 43.5256C62.1832 43.7758 47.9232 44.297 40.9266 44.5263L40.1544 40.5233H39.8736L37.2762 86.9955C37.323 87.4751 37.7536 88.4841 39.1014 88.6843C40.7862 88.9345 41.9796 90.3105 41.9796 91.1236V92.1244C42.003 92.4162 41.783 93 40.716 93C39.649 93 32.175 92.9583 28.5714 92.9375C28.2906 92.8541 27.6869 92.5622 27.5184 92.0618C27.3499 91.5614 27.4014 91.4363 27.4482 91.4363L27.7992 67.4184L27.5184 66.1675H27.1674L24.0084 87.3083C23.985 87.6418 24.0646 88.4466 24.57 88.997C25.0754 89.5474 25.5294 89.9769 25.6932 90.1229L25.8336 92.8124H13.8294L16.2162 62.9151L16.5151 61.2326C16.1321 61.3976 15.7315 61.4954 15.3738 61.539L9.4068 60.2255L9.126 60.0379C7.55352 61.2388 9.0792 67.752 10.0386 70.8585L6.2478 71.1087V70.5457H3.2292V69.9828L0 70.233Z" fill="white"/>
<path d="M35.1702 10.2508L18.8136 11.8144C19.656 18.5695 25.4826 19.9246 28.2906 19.7579C35.5914 18.607 35.919 12.9403 35.1702 10.2508Z" fill="white"/>
<path d="M20.9898 1.43168C16.4408 3.88351 17.2692 8.45775 18.252 10.4384L41.769 8.18672L43.3134 6.31032L42.6816 5.80995C41.8626 5.7891 39.8174 5.75991 38.1888 5.80995C36.5602 5.85998 35.4978 4.24628 35.1702 3.43317L34.749 2.55752C33.5696 0.906287 32.1984 0.326687 31.6602 0.243291C31.6602 0.0556511 27.4482 -0.194536 24.921 0.243291C22.8992 0.593552 21.4578 1.18149 20.9898 1.43168Z" fill="white"/>
<path d="M33.6258 24.7616L23.0958 22.0095L23.0256 22.0095L23.0958 22.1972C27.8132 26.1001 29.2734 31.2873 29.4138 33.393H37.1358L33.6258 24.7616Z" fill="white"/>
<path fill-rule="evenodd" clip-rule="evenodd" d="M54.756 57.0982C53.5205 57.0482 51.948 56.994 51.3162 56.9731H51.246C50.9886 56.9523 50.3474 57.1608 49.842 58.1615C49.3366 59.1623 49.725 59.7877 49.9824 59.9754L52.7904 61.4765C51.1056 62.6274 50.544 64.7498 50.4738 65.6671V80.6158H42.1902V82.1169C42.3025 82.6173 42.705 82.7424 42.8922 82.7424H111.127C111.744 82.7424 111.946 82.3671 111.969 82.1794C111.992 82.0544 112.025 81.6791 111.969 81.1787C111.913 80.6783 111.618 80.5115 111.478 80.4907H103.334V65.3544C103.358 65.1668 103.32 64.5538 102.983 63.6031C102.646 62.6524 101.626 61.7058 101.158 61.3514L104.458 59.6001C104.224 58.9329 103.685 57.5236 103.405 57.2233C103.054 56.848 102.562 56.848 102.281 56.848C102.057 56.848 101.579 56.9314 101.369 56.9731C101.018 57.0565 99.9086 57.1608 98.28 56.9106C96.6514 56.6604 95.2614 55.3886 94.77 54.784L93.6468 53.2203C91.9058 51.3189 89.5986 50.8436 88.6626 50.8436H65.1456C62.2814 51.1438 60.5826 52.8034 60.0912 53.5956C59.3277 54.6387 58.7487 55.2215 58.4613 55.5107C58.3523 55.6203 58.2853 55.6878 58.266 55.7222C58.1958 55.8473 56.3004 57.1608 54.756 57.0982ZM63.882 53.5331L57.6342 60.1005H96.6654C95.1912 58.4743 91.976 55.0217 90.909 54.2211C89.842 53.4205 88.3584 53.1369 87.75 53.0952H65.286C64.3874 53.0952 63.9756 53.3871 63.882 53.5331ZM54.2646 63.8533L62.4078 64.7289L64.584 67.1057L63.6714 67.7312H56.3004C55.7622 67.7103 54.5454 67.4435 53.9838 66.5428L54.2646 63.8533ZM91.611 64.4787L89.6454 66.7304L91.8918 67.7312C93.9276 67.6478 98.1115 67.4685 98.5608 67.4184C99.0101 67.3684 99.4968 66.7721 99.684 66.4802L99.6138 63.6031L91.611 64.4787ZM92.5938 77.3634H61.7058V80.6158H92.5938V77.3634Z" fill="white"/>
</svg>
