<svg width="273" height="45" viewBox="0 0 273 45" fill="none" xmlns="http://www.w3.org/2000/svg">
<path d="M205.047 16.9146C205.297 16.9188 205.525 16.8722 205.732 16.7749C205.94 16.6776 206.111 16.5379 206.247 16.356C206.386 16.174 206.484 15.9645 206.539 15.7275L207.954 15.7212C207.899 16.2121 207.726 16.6395 207.434 17.0034C207.146 17.3674 206.786 17.6488 206.354 17.8477C205.927 18.0423 205.474 18.1354 204.996 18.127C204.509 18.1185 204.093 18.019 203.746 17.8286C203.403 17.6382 203.126 17.3822 202.914 17.0605C202.702 16.7389 202.554 16.375 202.47 15.9688C202.389 15.5583 202.37 15.133 202.413 14.6929L202.438 14.4644C202.489 13.9946 202.601 13.5503 202.774 13.1313C202.952 12.7124 203.187 12.3421 203.479 12.0205C203.775 11.6947 204.124 11.4408 204.526 11.2588C204.928 11.0768 205.381 10.9922 205.885 11.0049C206.393 11.0133 206.831 11.1297 207.199 11.354C207.567 11.5783 207.848 11.8851 208.043 12.2744C208.238 12.6595 208.333 13.0996 208.329 13.5947L206.926 13.5884C206.926 13.3514 206.886 13.1313 206.805 12.9282C206.729 12.7209 206.606 12.5537 206.437 12.4268C206.272 12.2956 206.056 12.2257 205.79 12.2173C205.476 12.2088 205.208 12.2702 204.983 12.4014C204.763 12.5326 204.579 12.7103 204.431 12.9346C204.287 13.1589 204.173 13.4064 204.088 13.6772C204.008 13.9438 203.953 14.2083 203.923 14.4707L203.898 14.6929C203.877 14.9172 203.868 15.1584 203.873 15.4165C203.881 15.6704 203.921 15.9095 203.993 16.1338C204.065 16.3581 204.184 16.5422 204.349 16.686C204.518 16.8299 204.751 16.9061 205.047 16.9146ZM212.702 16.6226L213.223 13.3281C213.248 13.1081 213.233 12.9092 213.178 12.7314C213.123 12.5537 213.022 12.4141 212.874 12.3125C212.73 12.2067 212.539 12.1517 212.302 12.1475C212.091 12.1432 211.892 12.1792 211.706 12.2554C211.519 12.3273 211.361 12.4352 211.229 12.5791C211.103 12.723 211.018 12.8986 210.976 13.106L209.484 13.1123C209.509 12.7526 209.615 12.4395 209.801 12.1729C209.992 11.902 210.231 11.6799 210.519 11.5063C210.811 11.3286 211.124 11.1995 211.458 11.1191C211.797 11.0345 212.127 10.9943 212.448 10.9985C212.914 11.007 213.326 11.1064 213.686 11.2969C214.046 11.4873 214.319 11.756 214.505 12.103C214.695 12.45 214.767 12.869 214.721 13.3599L214.219 16.4194C214.181 16.6606 214.154 16.9082 214.137 17.1621C214.124 17.4118 214.158 17.653 214.238 17.8857L214.226 18L212.747 18.0063C212.683 17.7821 212.651 17.5535 212.651 17.3208C212.651 17.0838 212.668 16.8511 212.702 16.6226ZM213.394 13.8232L213.242 14.769L212.251 14.7627C212.048 14.7627 211.839 14.7817 211.623 14.8198C211.411 14.8579 211.213 14.9235 211.026 15.0166C210.84 15.1097 210.684 15.2367 210.557 15.3975C210.43 15.554 210.351 15.7508 210.322 15.9878C210.301 16.1782 210.322 16.3433 210.385 16.4829C210.453 16.6183 210.555 16.7262 210.69 16.8066C210.825 16.887 210.986 16.9294 211.172 16.9336C211.422 16.9378 211.667 16.8892 211.909 16.7876C212.154 16.686 212.366 16.5422 212.543 16.356C212.725 16.1655 212.85 15.9476 212.918 15.7021L213.318 16.3877C213.225 16.6458 213.094 16.8828 212.924 17.0986C212.759 17.3145 212.567 17.5007 212.347 17.6572C212.127 17.8138 211.885 17.9344 211.623 18.019C211.365 18.1037 211.098 18.1439 210.823 18.1396C210.442 18.1312 210.095 18.0444 209.782 17.8794C209.469 17.7101 209.222 17.4753 209.04 17.1748C208.858 16.8743 208.777 16.5273 208.798 16.1338C208.819 15.6895 208.932 15.3192 209.135 15.0229C209.342 14.7225 209.607 14.4855 209.928 14.312C210.254 14.1343 210.61 14.0073 210.995 13.9312C211.38 13.855 211.761 13.8169 212.137 13.8169L213.394 13.8232ZM217.945 12.5156L216.993 18H215.501L216.695 11.1318H218.11L217.945 12.5156ZM220.18 11.0747L220.015 12.5029C219.917 12.486 219.818 12.4712 219.716 12.4585C219.619 12.4458 219.522 12.4395 219.424 12.4395C219.166 12.4352 218.933 12.4712 218.726 12.5474C218.519 12.6235 218.337 12.7336 218.18 12.8774C218.024 13.0171 217.892 13.1864 217.787 13.3853C217.681 13.5799 217.598 13.7979 217.539 14.0391L217.184 14.0645C217.226 13.7301 217.298 13.3831 217.399 13.0234C217.505 12.6637 217.651 12.3294 217.837 12.0205C218.024 11.7074 218.261 11.4556 218.548 11.2651C218.836 11.0705 219.185 10.9774 219.596 10.9858C219.693 10.9858 219.79 10.9943 219.888 11.0112C219.985 11.0282 220.082 11.0493 220.18 11.0747ZM225.232 16.4067L227.664 11.1318H228.667L228.095 12.8013L225.67 18H224.775L225.232 16.4067ZM225.239 11.1318L225.512 16.5908L225.359 18H224.426L223.817 11.1318H225.239ZM229.174 16.3623L231.225 11.1318H232.723L229.733 18H228.743L229.174 16.3623ZM228.787 11.1318L229.396 16.502L229.314 18H228.495L227.829 12.6489L227.848 11.1318H228.787ZM236.519 16.6226L237.039 13.3281C237.064 13.1081 237.05 12.9092 236.995 12.7314C236.94 12.5537 236.838 12.4141 236.69 12.3125C236.546 12.2067 236.356 12.1517 236.119 12.1475C235.907 12.1432 235.708 12.1792 235.522 12.2554C235.336 12.3273 235.177 12.4352 235.046 12.5791C234.919 12.723 234.834 12.8986 234.792 13.106L233.3 13.1123C233.326 12.7526 233.431 12.4395 233.618 12.1729C233.808 11.902 234.047 11.6799 234.335 11.5063C234.627 11.3286 234.94 11.1995 235.274 11.1191C235.613 11.0345 235.943 10.9943 236.265 10.9985C236.73 11.007 237.143 11.1064 237.502 11.2969C237.862 11.4873 238.135 11.756 238.321 12.103C238.512 12.45 238.584 12.869 238.537 13.3599L238.036 16.4194C237.998 16.6606 237.97 16.9082 237.953 17.1621C237.94 17.4118 237.974 17.653 238.055 17.8857L238.042 18L236.563 18.0063C236.5 17.7821 236.468 17.5535 236.468 17.3208C236.468 17.0838 236.485 16.8511 236.519 16.6226ZM237.21 13.8232L237.058 14.769L236.068 14.7627C235.865 14.7627 235.655 14.7817 235.439 14.8198C235.228 14.8579 235.029 14.9235 234.843 15.0166C234.657 15.1097 234.5 15.2367 234.373 15.3975C234.246 15.554 234.168 15.7508 234.138 15.9878C234.117 16.1782 234.138 16.3433 234.202 16.4829C234.269 16.6183 234.371 16.7262 234.506 16.8066C234.642 16.887 234.803 16.9294 234.989 16.9336C235.238 16.9378 235.484 16.8892 235.725 16.7876C235.971 16.686 236.182 16.5422 236.36 16.356C236.542 16.1655 236.667 15.9476 236.734 15.7021L237.134 16.3877C237.041 16.6458 236.91 16.8828 236.741 17.0986C236.576 17.3145 236.383 17.5007 236.163 17.6572C235.943 17.8138 235.702 17.9344 235.439 18.019C235.181 18.1037 234.915 18.1439 234.64 18.1396C234.259 18.1312 233.912 18.0444 233.599 17.8794C233.285 17.7101 233.038 17.4753 232.856 17.1748C232.674 16.8743 232.594 16.5273 232.615 16.1338C232.636 15.6895 232.748 15.3192 232.951 15.0229C233.159 14.7225 233.423 14.4855 233.745 14.312C234.07 14.1343 234.426 14.0073 234.811 13.9312C235.196 13.855 235.577 13.8169 235.954 13.8169L237.21 13.8232ZM243.418 16.1021C243.452 15.8693 243.402 15.6895 243.266 15.5625C243.131 15.4313 242.961 15.3319 242.758 15.2642C242.555 15.1965 242.369 15.1414 242.2 15.0991C241.942 15.0356 241.683 14.9552 241.425 14.8579C241.171 14.7563 240.939 14.6294 240.727 14.4771C240.515 14.3247 240.348 14.1385 240.226 13.9185C240.103 13.6942 240.048 13.4276 240.061 13.1187C240.077 12.7632 240.171 12.4521 240.34 12.1855C240.509 11.9189 240.727 11.6968 240.994 11.519C241.264 11.3413 241.561 11.2101 241.882 11.1255C242.204 11.0409 242.523 11.0007 242.841 11.0049C243.285 11.0133 243.694 11.1001 244.066 11.2651C244.443 11.4302 244.743 11.6735 244.967 11.9951C245.196 12.3167 245.308 12.7145 245.304 13.1885L243.818 13.1821C243.827 12.9705 243.789 12.7886 243.704 12.6362C243.624 12.4797 243.505 12.359 243.349 12.2744C243.192 12.1898 243.004 12.1453 242.784 12.1411C242.593 12.1369 242.405 12.1686 242.219 12.2363C242.037 12.304 241.88 12.4056 241.749 12.541C241.618 12.6764 241.537 12.8478 241.508 13.0552C241.482 13.216 241.506 13.3493 241.578 13.4551C241.65 13.5566 241.749 13.6392 241.876 13.7026C242.003 13.7661 242.136 13.819 242.276 13.8613C242.42 13.8994 242.549 13.9312 242.663 13.9565C243.023 14.0539 243.376 14.1787 243.723 14.3311C244.07 14.4792 244.354 14.6886 244.574 14.9595C244.794 15.2261 244.893 15.5773 244.872 16.0132C244.859 16.3856 244.762 16.7072 244.58 16.978C244.398 17.2446 244.165 17.4647 243.882 17.6382C243.598 17.8075 243.287 17.9323 242.949 18.0127C242.614 18.0931 242.284 18.1312 241.958 18.127C241.51 18.1185 241.087 18.0254 240.689 17.8477C240.295 17.6699 239.978 17.4139 239.737 17.0796C239.5 16.741 239.381 16.3285 239.381 15.8418L240.822 15.8481C240.822 16.0936 240.871 16.3009 240.968 16.4702C241.07 16.6395 241.209 16.7686 241.387 16.8574C241.569 16.9421 241.781 16.9865 242.022 16.9907C242.221 16.9907 242.42 16.9632 242.619 16.9082C242.822 16.849 242.995 16.7537 243.139 16.6226C243.287 16.4914 243.38 16.3179 243.418 16.1021ZM248.979 8.25L247.284 18H245.792L247.487 8.25H248.979ZM247.684 14.312H247.214C247.269 13.9142 247.369 13.5186 247.513 13.125C247.661 12.7272 247.86 12.3675 248.109 12.0459C248.359 11.7201 248.66 11.4619 249.011 11.2715C249.362 11.0811 249.768 10.9922 250.229 11.0049C250.606 11.0133 250.919 11.0874 251.169 11.2271C251.423 11.3667 251.622 11.5571 251.766 11.7983C251.91 12.0353 252.005 12.3083 252.051 12.6172C252.098 12.9219 252.102 13.2456 252.064 13.5884L251.328 18H249.823L250.572 13.5693C250.598 13.3197 250.589 13.0954 250.547 12.8965C250.505 12.6976 250.411 12.5389 250.268 12.4204C250.124 12.2977 249.914 12.2342 249.639 12.23C249.343 12.2215 249.081 12.2765 248.852 12.395C248.628 12.5135 248.435 12.6743 248.274 12.8774C248.118 13.0806 247.991 13.307 247.894 13.5566C247.796 13.8063 247.726 14.0581 247.684 14.312ZM206.208 31.1021C206.242 30.8693 206.192 30.6895 206.056 30.5625C205.921 30.4313 205.751 30.3319 205.548 30.2642C205.345 30.1965 205.159 30.1414 204.99 30.0991C204.732 30.0356 204.473 29.9552 204.215 29.8579C203.961 29.7563 203.729 29.6294 203.517 29.4771C203.306 29.3247 203.138 29.1385 203.016 28.9185C202.893 28.6942 202.838 28.4276 202.851 28.1187C202.868 27.7632 202.961 27.4521 203.13 27.1855C203.299 26.9189 203.517 26.6968 203.784 26.519C204.055 26.3413 204.351 26.2101 204.672 26.1255C204.994 26.0409 205.313 26.0007 205.631 26.0049C206.075 26.0133 206.484 26.1001 206.856 26.2651C207.233 26.4302 207.533 26.6735 207.757 26.9951C207.986 27.3167 208.098 27.7145 208.094 28.1885L206.608 28.1821C206.617 27.9705 206.579 27.7886 206.494 27.6362C206.414 27.4797 206.295 27.359 206.139 27.2744C205.982 27.1898 205.794 27.1453 205.574 27.1411C205.383 27.1369 205.195 27.1686 205.009 27.2363C204.827 27.304 204.67 27.4056 204.539 27.541C204.408 27.6764 204.327 27.8478 204.298 28.0552C204.272 28.216 204.296 28.3493 204.368 28.4551C204.44 28.5566 204.539 28.6392 204.666 28.7026C204.793 28.7661 204.926 28.819 205.066 28.8613C205.21 28.8994 205.339 28.9312 205.453 28.9565C205.813 29.0539 206.166 29.1787 206.513 29.3311C206.86 29.4792 207.144 29.6886 207.364 29.9595C207.584 30.2261 207.683 30.5773 207.662 31.0132C207.649 31.3856 207.552 31.7072 207.37 31.978C207.188 32.2446 206.955 32.4647 206.672 32.6382C206.388 32.8075 206.077 32.9323 205.739 33.0127C205.404 33.0931 205.074 33.1312 204.749 33.127C204.3 33.1185 203.877 33.0254 203.479 32.8477C203.085 32.6699 202.768 32.4139 202.527 32.0796C202.29 31.741 202.171 31.3285 202.171 30.8418L203.612 30.8481C203.612 31.0936 203.661 31.3009 203.758 31.4702C203.86 31.6395 204 31.7686 204.177 31.8574C204.359 31.9421 204.571 31.9865 204.812 31.9907C205.011 31.9907 205.21 31.9632 205.409 31.9082C205.612 31.849 205.785 31.7537 205.929 31.6226C206.077 31.4914 206.17 31.3179 206.208 31.1021ZM211.687 33.127C211.217 33.1185 210.8 33.0275 210.436 32.854C210.076 32.6763 209.778 32.4372 209.541 32.1367C209.304 31.832 209.133 31.4829 209.027 31.0894C208.921 30.6916 208.885 30.2684 208.919 29.8198L208.944 29.5596C208.991 29.0983 209.103 28.654 209.281 28.2266C209.458 27.7949 209.695 27.4119 209.992 27.0776C210.292 26.7391 210.646 26.4725 211.052 26.2778C211.458 26.0832 211.911 25.9922 212.41 26.0049C212.888 26.0133 213.292 26.1128 213.623 26.3032C213.953 26.4937 214.215 26.7476 214.41 27.0649C214.604 27.3781 214.733 27.7336 214.797 28.1313C214.865 28.5291 214.875 28.9417 214.829 29.3691L214.74 30.0229H209.585L209.763 28.9248L213.4 28.9312L213.426 28.7979C213.464 28.5312 213.449 28.2795 213.381 28.0425C213.318 27.8055 213.199 27.6108 213.026 27.4585C212.852 27.3062 212.62 27.2257 212.328 27.2173C212.01 27.2088 211.737 27.2744 211.509 27.4141C211.285 27.5537 211.098 27.742 210.95 27.979C210.802 28.216 210.686 28.4741 210.601 28.7534C210.521 29.0285 210.464 29.2972 210.43 29.5596L210.404 29.8135C210.379 30.0632 210.385 30.3107 210.423 30.5562C210.461 30.8016 210.535 31.0259 210.646 31.229C210.756 31.4279 210.908 31.5908 211.103 31.7178C211.297 31.8405 211.538 31.9061 211.826 31.9146C212.186 31.923 212.512 31.849 212.804 31.6924C213.1 31.5316 213.369 31.3242 213.61 31.0703L214.346 31.8511C214.152 32.1431 213.91 32.3843 213.623 32.5747C213.339 32.7651 213.03 32.9069 212.696 33C212.366 33.0889 212.029 33.1312 211.687 33.127ZM217.806 27.5156L216.854 33H215.362L216.555 26.1318H217.971L217.806 27.5156ZM220.04 26.0747L219.875 27.5029C219.778 27.486 219.678 27.4712 219.577 27.4585C219.479 27.4458 219.382 27.4395 219.285 27.4395C219.027 27.4352 218.794 27.4712 218.586 27.5474C218.379 27.6235 218.197 27.7336 218.041 27.8774C217.884 28.0171 217.753 28.1864 217.647 28.3853C217.541 28.5799 217.459 28.7979 217.399 29.0391L217.044 29.0645C217.086 28.7301 217.158 28.3831 217.26 28.0234C217.366 27.6637 217.512 27.3294 217.698 27.0205C217.884 26.7074 218.121 26.4556 218.409 26.2651C218.696 26.0705 219.046 25.9774 219.456 25.9858C219.553 25.9858 219.651 25.9943 219.748 26.0112C219.845 26.0282 219.943 26.0493 220.04 26.0747ZM222.351 31.7241L224.839 26.1318H226.438L223.042 33H222.046L222.351 31.7241ZM221.963 26.1318L222.75 31.8828L222.649 33H221.716L220.459 26.1318H221.963ZM228.971 26.1318L227.778 33H226.286L227.479 26.1318H228.971ZM227.689 24.3545C227.685 24.109 227.765 23.908 227.93 23.7515C228.095 23.5949 228.298 23.5145 228.54 23.5103C228.772 23.506 228.971 23.578 229.136 23.7261C229.306 23.87 229.39 24.0625 229.39 24.3037C229.394 24.5492 229.312 24.748 229.143 24.9004C228.978 25.0527 228.777 25.131 228.54 25.1353C228.307 25.1395 228.108 25.0718 227.943 24.9321C227.778 24.7882 227.693 24.5957 227.689 24.3545ZM232.342 31.9146C232.591 31.9188 232.82 31.8722 233.027 31.7749C233.235 31.6776 233.406 31.5379 233.542 31.356C233.681 31.174 233.778 30.9645 233.833 30.7275L235.249 30.7212C235.194 31.2121 235.021 31.6395 234.729 32.0034C234.441 32.3674 234.081 32.6488 233.649 32.8477C233.222 33.0423 232.769 33.1354 232.291 33.127C231.804 33.1185 231.388 33.019 231.041 32.8286C230.698 32.6382 230.421 32.3822 230.209 32.0605C229.997 31.7389 229.849 31.375 229.765 30.9688C229.684 30.5583 229.665 30.133 229.708 29.6929L229.733 29.4644C229.784 28.9946 229.896 28.5503 230.069 28.1313C230.247 27.7124 230.482 27.3421 230.774 27.0205C231.07 26.6947 231.419 26.4408 231.821 26.2588C232.223 26.0768 232.676 25.9922 233.18 26.0049C233.688 26.0133 234.125 26.1297 234.494 26.354C234.862 26.5783 235.143 26.8851 235.338 27.2744C235.533 27.6595 235.628 28.0996 235.624 28.5947L234.221 28.5884C234.221 28.3514 234.181 28.1313 234.1 27.9282C234.024 27.7209 233.901 27.5537 233.732 27.4268C233.567 27.2956 233.351 27.2257 233.084 27.2173C232.771 27.2088 232.503 27.2702 232.278 27.4014C232.058 27.5326 231.874 27.7103 231.726 27.9346C231.582 28.1589 231.468 28.4064 231.383 28.6772C231.303 28.9438 231.248 29.2083 231.218 29.4707L231.193 29.6929C231.172 29.9172 231.163 30.1584 231.167 30.4165C231.176 30.6704 231.216 30.9095 231.288 31.1338C231.36 31.3581 231.479 31.5422 231.644 31.686C231.813 31.8299 232.046 31.9061 232.342 31.9146ZM239.07 33.127C238.601 33.1185 238.184 33.0275 237.82 32.854C237.46 32.6763 237.162 32.4372 236.925 32.1367C236.688 31.832 236.516 31.4829 236.411 31.0894C236.305 30.6916 236.269 30.2684 236.303 29.8198L236.328 29.5596C236.375 29.0983 236.487 28.654 236.665 28.2266C236.842 27.7949 237.079 27.4119 237.375 27.0776C237.676 26.7391 238.029 26.4725 238.436 26.2778C238.842 26.0832 239.295 25.9922 239.794 26.0049C240.272 26.0133 240.676 26.1128 241.006 26.3032C241.336 26.4937 241.599 26.7476 241.793 27.0649C241.988 27.3781 242.117 27.7336 242.181 28.1313C242.248 28.5291 242.259 28.9417 242.212 29.3691L242.124 30.0229H236.969L237.147 28.9248L240.784 28.9312L240.81 28.7979C240.848 28.5312 240.833 28.2795 240.765 28.0425C240.702 27.8055 240.583 27.6108 240.41 27.4585C240.236 27.3062 240.003 27.2257 239.711 27.2173C239.394 27.2088 239.121 27.2744 238.893 27.4141C238.668 27.5537 238.482 27.742 238.334 27.979C238.186 28.216 238.069 28.4741 237.985 28.7534C237.904 29.0285 237.847 29.2972 237.813 29.5596L237.788 29.8135C237.763 30.0632 237.769 30.3107 237.807 30.5562C237.845 30.8016 237.919 31.0259 238.029 31.229C238.139 31.4279 238.292 31.5908 238.486 31.7178C238.681 31.8405 238.922 31.9061 239.21 31.9146C239.57 31.923 239.896 31.849 240.188 31.6924C240.484 31.5316 240.752 31.3242 240.994 31.0703L241.73 31.8511C241.535 32.1431 241.294 32.3843 241.006 32.5747C240.723 32.7651 240.414 32.9069 240.08 33C239.75 33.0889 239.413 33.1312 239.07 33.127ZM246.846 31.1021C246.88 30.8693 246.829 30.6895 246.694 30.5625C246.558 30.4313 246.389 30.3319 246.186 30.2642C245.983 30.1965 245.797 30.1414 245.627 30.0991C245.369 30.0356 245.111 29.9552 244.853 29.8579C244.599 29.7563 244.366 29.6294 244.155 29.4771C243.943 29.3247 243.776 29.1385 243.653 28.9185C243.531 28.6942 243.476 28.4276 243.488 28.1187C243.505 27.7632 243.598 27.4521 243.768 27.1855C243.937 26.9189 244.155 26.6968 244.421 26.519C244.692 26.3413 244.988 26.2101 245.31 26.1255C245.632 26.0409 245.951 26.0007 246.269 26.0049C246.713 26.0133 247.121 26.1001 247.494 26.2651C247.87 26.4302 248.171 26.6735 248.395 26.9951C248.624 27.3167 248.736 27.7145 248.731 28.1885L247.246 28.1821C247.255 27.9705 247.216 27.7886 247.132 27.6362C247.051 27.4797 246.933 27.359 246.776 27.2744C246.62 27.1898 246.431 27.1453 246.211 27.1411C246.021 27.1369 245.833 27.1686 245.646 27.2363C245.465 27.304 245.308 27.4056 245.177 27.541C245.046 27.6764 244.965 27.8478 244.936 28.0552C244.91 28.216 244.933 28.3493 245.005 28.4551C245.077 28.5566 245.177 28.6392 245.304 28.7026C245.431 28.7661 245.564 28.819 245.704 28.8613C245.847 28.8994 245.977 28.9312 246.091 28.9565C246.451 29.0539 246.804 29.1787 247.151 29.3311C247.498 29.4792 247.781 29.6886 248.001 29.9595C248.222 30.2261 248.321 30.5773 248.3 31.0132C248.287 31.3856 248.19 31.7072 248.008 31.978C247.826 32.2446 247.593 32.4647 247.31 32.6382C247.026 32.8075 246.715 32.9323 246.376 33.0127C246.042 33.0931 245.712 33.1312 245.386 33.127C244.938 33.1185 244.514 33.0254 244.117 32.8477C243.723 32.6699 243.406 32.4139 243.165 32.0796C242.928 31.741 242.809 31.3285 242.809 30.8418L244.25 30.8481C244.25 31.0936 244.299 31.3009 244.396 31.4702C244.498 31.6395 244.637 31.7686 244.815 31.8574C244.997 31.9421 245.208 31.9865 245.45 31.9907C245.649 31.9907 245.847 31.9632 246.046 31.9082C246.25 31.849 246.423 31.7537 246.567 31.6226C246.715 31.4914 246.808 31.3179 246.846 31.1021Z" fill="white"/>
<path d="M16.2031 11.0449L5.04102 33H0.365234L14.1465 7.40625H17.1523L16.2031 11.0449ZM18.6289 33L15.0078 10.5703L15.2715 7.40625H18.0664L23.0059 33H18.6289ZM19.877 23.5078L19.2617 27.0059H5.72656L6.3418 23.5078H19.877ZM35.416 40.3125L39.3711 17.5137L40.4082 13.9805H44.1523L39.5645 40.3125H35.416ZM26.3105 23.8066L26.3633 23.4375C26.5039 22.2656 26.7734 21.0938 27.1719 19.9219C27.582 18.7383 28.1328 17.666 28.8242 16.7051C29.5273 15.7441 30.3887 14.9824 31.4082 14.4199C32.4277 13.8574 33.623 13.5879 34.9941 13.6113C36.2129 13.6465 37.2207 13.957 38.0176 14.543C38.8145 15.1172 39.4414 15.8672 39.8984 16.793C40.3672 17.707 40.6836 18.7031 40.8477 19.7812C41.0117 20.8477 41.0703 21.8965 41.0234 22.9277L40.8828 24.123C40.6836 25.2246 40.3555 26.3262 39.8984 27.4277C39.4531 28.5293 38.873 29.5371 38.1582 30.4512C37.4434 31.3535 36.5938 32.0742 35.6094 32.6133C34.625 33.1523 33.5059 33.4043 32.252 33.3691C30.9746 33.3223 29.9258 33.0059 29.1055 32.4199C28.2852 31.8223 27.6523 31.0547 27.207 30.1172C26.7617 29.1797 26.4688 28.1602 26.3281 27.0586C26.1992 25.9453 26.1934 24.8613 26.3105 23.8066ZM30.5293 23.4375L30.4766 23.8066C30.4062 24.4043 30.377 25.0547 30.3887 25.7578C30.4121 26.4609 30.5176 27.1289 30.7051 27.7617C30.8926 28.3945 31.2031 28.9219 31.6367 29.3438C32.082 29.7539 32.7031 29.9766 33.5 30.0117C34.4492 30.0469 35.2871 29.8359 36.0137 29.3789C36.7402 28.9219 37.3438 28.3184 37.8242 27.5684C38.3047 26.8066 38.6504 26.0039 38.8613 25.1602L39.3535 21.9434C39.3887 21.3457 39.3477 20.7598 39.2305 20.1855C39.1133 19.5996 38.9082 19.0723 38.6152 18.6035C38.334 18.1348 37.959 17.7539 37.4902 17.4609C37.0332 17.1562 36.4707 16.998 35.8027 16.9863C34.9238 16.9629 34.1738 17.1445 33.5527 17.5312C32.9316 17.918 32.4102 18.4395 31.9883 19.0957C31.5781 19.7402 31.25 20.4434 31.0039 21.2051C30.7695 21.9668 30.6113 22.7109 30.5293 23.4375ZM57.125 28.3066L59.6035 13.9805H63.752L60.4473 33H56.5449L57.125 28.3066ZM58.2852 24.5625L59.6562 24.5098C59.5156 25.6582 59.2578 26.7715 58.8828 27.8496C58.5078 28.916 57.998 29.8711 57.3535 30.7148C56.709 31.5586 55.9062 32.2207 54.9453 32.7012C53.9844 33.1816 52.8535 33.4043 51.5527 33.3691C50.5098 33.334 49.6309 33.1289 48.916 32.7539C48.2129 32.3672 47.6562 31.8457 47.2461 31.1895C46.8359 30.5332 46.5605 29.7832 46.4199 28.9395C46.291 28.0957 46.2734 27.2051 46.3672 26.2676L48.4238 13.9805H52.5547L50.4805 26.3203C50.4453 26.7773 50.4453 27.2168 50.4805 27.6387C50.5156 28.0605 50.6152 28.4414 50.7793 28.7812C50.9434 29.1211 51.1836 29.3965 51.5 29.6074C51.8281 29.8066 52.2559 29.918 52.7832 29.9414C53.9082 29.9766 54.8457 29.7598 55.5957 29.291C56.3574 28.8105 56.9551 28.1543 57.3887 27.3223C57.834 26.4902 58.1328 25.5703 58.2852 24.5625ZM75.7578 29.1855L77.1992 20.0625C77.2695 19.4531 77.2285 18.9023 77.0762 18.4102C76.9238 17.918 76.6426 17.5312 76.2324 17.25C75.834 16.957 75.3066 16.8047 74.6504 16.793C74.0645 16.7812 73.5137 16.8809 72.998 17.0918C72.4824 17.291 72.043 17.5898 71.6797 17.9883C71.3281 18.3867 71.0938 18.873 70.9766 19.4473L66.8457 19.4648C66.916 18.4688 67.209 17.6016 67.7246 16.8633C68.252 16.1133 68.9141 15.498 69.7109 15.0176C70.5195 14.5254 71.3867 14.168 72.3125 13.9453C73.25 13.7109 74.1641 13.5996 75.0547 13.6113C76.3438 13.6348 77.4863 13.9102 78.4824 14.4375C79.4785 14.9648 80.2344 15.709 80.75 16.6699C81.2773 17.6309 81.4766 18.791 81.3477 20.1504L79.959 28.623C79.8535 29.291 79.7773 29.9766 79.7305 30.6797C79.6953 31.3711 79.7891 32.0391 80.0117 32.6836L79.9766 33L75.8809 33.0176C75.7051 32.3965 75.6172 31.7637 75.6172 31.1191C75.6172 30.4629 75.6641 29.8184 75.7578 29.1855ZM77.6738 21.4336L77.252 24.0527L74.5098 24.0352C73.9473 24.0352 73.3672 24.0879 72.7695 24.1934C72.1836 24.2988 71.6328 24.4805 71.1172 24.7383C70.6016 24.9961 70.168 25.3477 69.8164 25.793C69.4648 26.2266 69.248 26.7715 69.166 27.4277C69.1074 27.9551 69.166 28.4121 69.3418 28.7988C69.5293 29.1738 69.8105 29.4727 70.1855 29.6953C70.5605 29.918 71.0059 30.0352 71.5215 30.0469C72.2129 30.0586 72.8926 29.9238 73.5605 29.6426C74.2402 29.3613 74.8262 28.9629 75.3184 28.4473C75.8223 27.9199 76.168 27.3164 76.3555 26.6367L77.4629 28.5352C77.2051 29.25 76.8418 29.9062 76.373 30.5039C75.916 31.1016 75.3828 31.6172 74.7734 32.0508C74.1641 32.4844 73.4961 32.8184 72.7695 33.0527C72.0547 33.2871 71.3164 33.3984 70.5547 33.3867C69.5 33.3633 68.5391 33.123 67.6719 32.666C66.8047 32.1973 66.1191 31.5469 65.6152 30.7148C65.1113 29.8828 64.8887 28.9219 64.9473 27.832C65.0059 26.6016 65.3164 25.5762 65.8789 24.7559C66.4531 23.9238 67.1855 23.2676 68.0762 22.7871C68.9785 22.2949 69.9629 21.9434 71.0293 21.7324C72.0957 21.5215 73.1504 21.416 74.1934 21.416L77.6738 21.4336ZM90.207 18.0938L87.623 33H83.4746L86.7793 13.9805H90.6816L90.207 18.0938ZM88.7832 22.7871H87.4121C87.5527 21.627 87.8223 20.4961 88.2207 19.3945C88.6309 18.2812 89.1816 17.2852 89.873 16.4062C90.5645 15.5273 91.4082 14.8359 92.4043 14.332C93.4004 13.8281 94.5547 13.5938 95.8672 13.6289C96.8398 13.6523 97.6543 13.8457 98.3105 14.209C98.9785 14.5723 99.5117 15.0645 99.9102 15.6855C100.309 16.3066 100.572 17.0156 100.701 17.8125C100.83 18.5977 100.854 19.4355 100.771 20.3262L98.6621 33H94.5137L96.5879 20.6777C96.6699 19.998 96.6465 19.3887 96.5176 18.8496C96.3887 18.2988 96.1191 17.8594 95.709 17.5312C95.3105 17.2031 94.7363 17.0273 93.9863 17.0039C93.1543 16.9805 92.4336 17.1328 91.8242 17.4609C91.2148 17.7891 90.7051 18.2344 90.2949 18.7969C89.8965 19.3594 89.5684 19.9922 89.3105 20.6953C89.0645 21.3867 88.8887 22.084 88.7832 22.7871ZM100.42 21.6621L98.416 22.1016C98.5449 21 98.8145 19.9395 99.2246 18.9199C99.6465 17.8887 100.203 16.9746 100.895 16.1777C101.598 15.3691 102.43 14.7363 103.391 14.2793C104.352 13.8105 105.441 13.5879 106.66 13.6113C107.691 13.6348 108.559 13.8398 109.262 14.2266C109.965 14.6016 110.516 15.1172 110.914 15.7734C111.324 16.4297 111.594 17.1797 111.723 18.0234C111.852 18.8555 111.863 19.7461 111.758 20.6953L109.701 33H105.553L107.627 20.6602C107.709 19.9688 107.686 19.3535 107.557 18.8145C107.439 18.2637 107.182 17.8301 106.783 17.5137C106.385 17.1973 105.805 17.0332 105.043 17.0215C104.363 16.998 103.754 17.1152 103.215 17.373C102.688 17.6191 102.23 17.9648 101.844 18.4102C101.469 18.8438 101.164 19.3418 100.93 19.9043C100.695 20.4668 100.525 21.0527 100.42 21.6621ZM125.047 29.1855L126.488 20.0625C126.559 19.4531 126.518 18.9023 126.365 18.4102C126.213 17.918 125.932 17.5312 125.521 17.25C125.123 16.957 124.596 16.8047 123.939 16.793C123.354 16.7812 122.803 16.8809 122.287 17.0918C121.771 17.291 121.332 17.5898 120.969 17.9883C120.617 18.3867 120.383 18.873 120.266 19.4473L116.135 19.4648C116.205 18.4688 116.498 17.6016 117.014 16.8633C117.541 16.1133 118.203 15.498 119 15.0176C119.809 14.5254 120.676 14.168 121.602 13.9453C122.539 13.7109 123.453 13.5996 124.344 13.6113C125.633 13.6348 126.775 13.9102 127.771 14.4375C128.768 14.9648 129.523 15.709 130.039 16.6699C130.566 17.6309 130.766 18.791 130.637 20.1504L129.248 28.623C129.143 29.291 129.066 29.9766 129.02 30.6797C128.984 31.3711 129.078 32.0391 129.301 32.6836L129.266 33L125.17 33.0176C124.994 32.3965 124.906 31.7637 124.906 31.1191C124.906 30.4629 124.953 29.8184 125.047 29.1855ZM126.963 21.4336L126.541 24.0527L123.799 24.0352C123.236 24.0352 122.656 24.0879 122.059 24.1934C121.473 24.2988 120.922 24.4805 120.406 24.7383C119.891 24.9961 119.457 25.3477 119.105 25.793C118.754 26.2266 118.537 26.7715 118.455 27.4277C118.396 27.9551 118.455 28.4121 118.631 28.7988C118.818 29.1738 119.1 29.4727 119.475 29.6953C119.85 29.918 120.295 30.0352 120.811 30.0469C121.502 30.0586 122.182 29.9238 122.85 29.6426C123.529 29.3613 124.115 28.9629 124.607 28.4473C125.111 27.9199 125.457 27.3164 125.645 26.6367L126.752 28.5352C126.494 29.25 126.131 29.9062 125.662 30.5039C125.205 31.1016 124.672 31.6172 124.062 32.0508C123.453 32.4844 122.785 32.8184 122.059 33.0527C121.344 33.2871 120.605 33.3984 119.844 33.3867C118.789 33.3633 117.828 33.123 116.961 32.666C116.094 32.1973 115.408 31.5469 114.904 30.7148C114.4 29.8828 114.178 28.9219 114.236 27.832C114.295 26.6016 114.605 25.5762 115.168 24.7559C115.742 23.9238 116.475 23.2676 117.365 22.7871C118.268 22.2949 119.252 21.9434 120.318 21.7324C121.385 21.5215 122.439 21.416 123.482 21.416L126.963 21.4336ZM139.566 17.8125L136.93 33H132.799L136.104 13.9805H140.023L139.566 17.8125ZM145.754 13.8223L145.297 17.7773C145.027 17.7305 144.752 17.6895 144.471 17.6543C144.201 17.6191 143.932 17.6016 143.662 17.6016C142.947 17.5898 142.303 17.6895 141.729 17.9004C141.154 18.1113 140.65 18.416 140.217 18.8145C139.783 19.2012 139.42 19.6699 139.127 20.2207C138.834 20.7598 138.605 21.3633 138.441 22.0312L137.457 22.1016C137.574 21.1758 137.773 20.2148 138.055 19.2188C138.348 18.2227 138.752 17.2969 139.268 16.4414C139.783 15.5742 140.439 14.877 141.236 14.3496C142.033 13.8105 143 13.5527 144.137 13.5762C144.406 13.5762 144.676 13.5996 144.945 13.6465C145.215 13.6934 145.484 13.752 145.754 13.8223ZM152.838 13.9805L149.533 33H145.402L148.707 13.9805H152.838ZM149.287 9.05859C149.275 8.37891 149.498 7.82227 149.955 7.38867C150.412 6.95508 150.975 6.73242 151.643 6.7207C152.287 6.70898 152.838 6.9082 153.295 7.31836C153.764 7.7168 153.998 8.25 153.998 8.91797C154.01 9.59766 153.781 10.1484 153.312 10.5703C152.855 10.9922 152.299 11.209 151.643 11.2207C150.998 11.2324 150.447 11.0449 149.99 10.6582C149.533 10.2598 149.299 9.72656 149.287 9.05859ZM160.66 18.2871L158.111 33H153.963L157.268 13.9805H161.152L160.66 18.2871ZM159.201 22.7871L157.936 22.8047C158.076 21.668 158.352 20.5488 158.762 19.4473C159.184 18.334 159.74 17.3379 160.432 16.459C161.123 15.5684 161.961 14.8652 162.945 14.3496C163.941 13.834 165.09 13.5938 166.391 13.6289C167.422 13.6523 168.277 13.8574 168.957 14.2441C169.648 14.6309 170.182 15.1523 170.557 15.8086C170.943 16.4648 171.195 17.2148 171.312 18.0586C171.43 18.9023 171.436 19.7871 171.33 20.7129L169.291 33H165.125L167.199 20.6602C167.27 19.9805 167.246 19.3711 167.129 18.832C167.012 18.2812 166.754 17.8477 166.355 17.5312C165.957 17.2031 165.383 17.0332 164.633 17.0215C163.812 16.998 163.092 17.1504 162.471 17.4785C161.85 17.8066 161.316 18.2578 160.871 18.832C160.426 19.3945 160.062 20.0215 159.781 20.7129C159.512 21.4043 159.318 22.0957 159.201 22.7871ZM182 33.3516C180.699 33.3281 179.545 33.0762 178.537 32.5957C177.541 32.1035 176.715 31.4414 176.059 30.6094C175.402 29.7656 174.928 28.7988 174.635 27.709C174.342 26.6074 174.242 25.4355 174.336 24.1934L174.406 23.4727C174.535 22.1953 174.846 20.9648 175.338 19.7812C175.83 18.5859 176.486 17.5254 177.307 16.5996C178.139 15.6621 179.117 14.9238 180.242 14.3848C181.367 13.8457 182.621 13.5938 184.004 13.6289C185.328 13.6523 186.447 13.9277 187.361 14.4551C188.275 14.9824 189.002 15.6855 189.541 16.5645C190.08 17.4316 190.438 18.416 190.613 19.5176C190.801 20.6191 190.83 21.7617 190.701 22.9453L190.455 24.7559H176.182L176.674 21.7148L186.746 21.7324L186.816 21.3633C186.922 20.625 186.881 19.9277 186.693 19.2715C186.518 18.6152 186.189 18.0762 185.709 17.6543C185.229 17.2324 184.584 17.0098 183.775 16.9863C182.896 16.9629 182.141 17.1445 181.508 17.5312C180.887 17.918 180.371 18.4395 179.961 19.0957C179.551 19.752 179.229 20.4668 178.994 21.2402C178.771 22.002 178.613 22.7461 178.52 23.4727L178.449 24.1758C178.379 24.8672 178.396 25.5527 178.502 26.2324C178.607 26.9121 178.812 27.5332 179.117 28.0957C179.422 28.6465 179.844 29.0977 180.383 29.4492C180.922 29.7891 181.59 29.9707 182.387 29.9941C183.383 30.0176 184.285 29.8125 185.094 29.3789C185.914 28.9336 186.658 28.3594 187.326 27.6562L189.365 29.8184C188.826 30.627 188.158 31.2949 187.361 31.8223C186.576 32.3496 185.721 32.7422 184.795 33C183.881 33.2461 182.949 33.3633 182 33.3516Z" fill="white"/>
</svg>
