<svg width="145" height="108" viewBox="0 0 145 108" fill="none" xmlns="http://www.w3.org/2000/svg">
<path d="M16.3429 77.5637C17.5256 69.0056 22.7021 64.5722 25.1425 63.4252L25.3537 63.3001V58.2953L25.9873 44.9701C26.0577 44.845 26.1985 39.4649 27.0433 35.8364C27.888 32.208 30.9855 30.0809 32.1822 29.5179C33.1396 29.0675 34.0829 29.2051 34.4349 29.3302C40.5735 31.5323 42.8122 37.9634 43.1641 40.9037C42.601 40.8829 41.2775 40.8537 40.4891 40.9037C39.7006 40.9538 39.3627 41.8421 39.2923 42.2801L38.6587 45.5332C38.2082 46.8344 36.9223 47.2431 36.3356 47.2848H34.9981L35.4909 41.9673L34.6461 41.5919C34.1064 43.0516 32.9425 46.972 32.6046 50.9759C32.2667 54.9797 32.4638 58.6916 32.6046 60.047C32.492 61.9989 32.9801 62.9039 33.2382 63.1124C33.428 63.3784 33.5942 63.6333 33.7386 63.8773L34.1533 61.5485L34.0829 49.0991C34.8573 49.1825 36.6595 49.3243 37.6732 49.2242C38.1894 49.1199 39.405 48.6236 40.1371 47.4725C40.8692 46.3214 41.0992 43.9066 41.1226 42.8431L41.4042 42.718H55.7652L54.3573 33.9596H54.5684L59.637 42.2801C59.9421 42.718 60.8056 43.6188 61.8193 43.7189H71.6749C72.59 43.4687 74.533 42.205 74.9835 39.1521C75.0539 38.9436 75.2511 38.5265 75.4763 38.5265H76.2507L77.9402 42.3426H80.2633C80.5449 42.4052 81.1503 42.6554 81.3193 43.1559C81.3193 43.6564 81.1785 47.6602 81.1081 49.5996C81.1081 49.9124 80.8406 50.6005 79.7705 50.8507C78.7005 51.101 64.4005 51.6223 57.3843 51.8517L56.61 47.8479H56.3284L53.7237 94.3297C53.7706 94.8094 54.2024 95.8186 55.554 96.0188C57.2435 96.2691 58.4403 97.6454 58.4403 98.4587V99.4596C58.4637 99.7516 58.2432 100.335 57.1731 100.335C56.1031 100.335 48.6082 100.294 44.9945 100.273C44.7129 100.189 44.1075 99.8975 43.9385 99.3971C43.7696 98.8966 43.8212 98.7715 43.8681 98.7715L44.2201 74.7486L43.9385 73.4974H43.5865L40.4187 94.6425C40.3952 94.9762 40.475 95.7811 40.9818 96.3316C41.4887 96.8822 41.9439 97.3117 42.1082 97.4577L42.249 100.148H30.2111L32.6046 70.2443L32.9043 68.5615C32.5202 68.7265 32.1185 68.8243 31.7598 68.8679L25.7761 67.5542L25.4945 67.3665C23.9176 68.5676 25.4476 75.0822 26.4097 78.1893L22.6083 78.4396V77.8765H19.5812V77.3135L16.3429 77.5637Z" fill="white"/>
<path d="M51.6118 17.569L35.2093 19.133C36.0541 25.8894 41.897 27.2449 44.7129 27.0781C52.0342 25.927 52.3627 20.2591 51.6118 17.569Z" fill="white"/>
<path d="M37.3916 8.74808C32.8299 11.2004 33.6606 15.7756 34.6461 17.7567L58.2291 15.5045L59.7778 13.6277L59.1442 13.1273C58.3229 13.1064 56.272 13.0772 54.6388 13.1273C53.0056 13.1773 51.9403 11.5633 51.6118 10.75L51.1894 9.87415C50.0067 8.22258 48.6316 7.64286 48.0919 7.55944C48.0919 7.37176 43.8681 7.12152 41.3338 7.55944C39.3064 7.90978 37.8609 8.49784 37.3916 8.74808Z" fill="white"/>
<path d="M50.063 32.0828L39.5035 29.3302L39.4331 29.3302L39.5035 29.5179C44.2342 33.4216 45.6984 38.6099 45.8392 40.7161H53.5829L50.063 32.0828Z" fill="white"/>
<path fill-rule="evenodd" clip-rule="evenodd" d="M71.2525 64.4262C70.0135 64.3761 68.4366 64.3219 67.8031 64.3011H67.7327C67.4745 64.2802 66.8316 64.4888 66.3247 65.4897C65.8179 66.4907 66.2074 67.1163 66.4655 67.3039L69.2814 68.8054C67.5919 69.9565 67.0287 72.0793 66.9583 72.9969V87.9486H58.6515V89.4501C58.7641 89.9505 59.1677 90.0757 59.3554 90.0757H127.781C128.401 90.0757 128.603 89.7003 128.626 89.5126C128.649 89.3875 128.682 89.0121 128.626 88.5117C128.57 88.0112 128.274 87.8444 128.133 87.8235H119.967V72.6841C119.991 72.4964 119.953 71.8833 119.615 70.9324C119.277 69.9815 118.254 69.0348 117.785 68.6803L121.094 66.9286C120.859 66.2613 120.319 64.8516 120.038 64.5513C119.686 64.176 119.193 64.176 118.911 64.176C118.686 64.176 118.207 64.2594 117.996 64.3011C117.644 64.3845 116.532 64.4888 114.899 64.2385C113.265 63.9883 111.872 62.7162 111.379 62.1115L110.252 60.5475C108.507 58.6457 106.193 58.1702 105.254 58.1702H81.6712C78.7991 58.4705 77.0954 60.1304 76.6027 60.9229C75.837 61.9662 75.2564 62.549 74.9682 62.8383L74.9682 62.8384C74.8589 62.948 74.7917 63.0155 74.7723 63.0499C74.702 63.175 72.8012 64.4888 71.2525 64.4262ZM80.4041 60.8603L74.1388 67.4291H113.279C111.801 65.8025 108.577 62.3492 107.507 61.5484C106.437 60.7477 104.949 60.4641 104.339 60.4224H81.812C80.911 60.4224 80.498 60.7143 80.4041 60.8603ZM70.7597 71.1826L78.9258 72.0585L81.1081 74.4357L80.1929 75.0613H72.8012C72.2615 75.0405 71.0413 74.7736 70.4781 73.8727L70.7597 71.1826ZM108.211 71.8082L106.24 74.0604L108.492 75.0613C110.534 74.9779 114.73 74.7986 115.18 74.7485C115.631 74.6985 116.119 74.1021 116.307 73.8101L116.236 70.9324L108.211 71.8082ZM109.196 84.6955H78.2218V87.9486H109.196V84.6955Z" fill="white"/>
</svg>
