<svg width="94" height="67" viewBox="0 0 94 67" fill="none" xmlns="http://www.w3.org/2000/svg">
<path d="M42.2744 8.22603L34.3327 0.77604L34.2804 0.724304L34.3327 21.6774L40.6547 27.5753C35.9001 26.1439 25.8685 23.1674 23.7785 22.7121C21.6886 22.2568 19.8773 23.4882 19.233 24.1607C13.5553 31.3693 2.07468 45.9312 1.57309 46.5107C1.07151 47.0901 0.632627 47.7868 0.475882 48.0628C-0.0988474 49.2699 -0.621328 52.1499 1.88658 54.0124C4.39449 55.8749 7.0069 54.616 7.99961 53.7537L18.8672 40.0437L18.9717 40.0954V63.0145C19.024 64.3769 19.9958 67.0809 23.4651 66.9981C26.9343 66.9154 27.941 64.1009 28.0106 62.7041V39.5781L35.8479 42.7857C43.2044 28.134 62.4944 30.4035 71.2198 33.3697C71.5124 32.0867 76.1834 24.2469 78.4823 20.4875C77.6881 19.5355 75.8525 18.6767 75.0339 18.3663C69.8091 16.8763 66.6917 20.0908 65.786 21.8843L62.8601 28.4031L53.1942 22.1948V8.22603H42.2744Z" fill="white"/>
<path d="M34.4894 51.8912C32.4831 56.8165 31.0062 63.7732 30.5186 66.636L81.3037 66.6877L86.9465 43.9239C80.9275 39.8677 74.7553 37.1982 72.4215 36.3704C70.349 35.6461 65.3994 34.1147 62.1809 33.7836C58.9624 33.4525 55.3364 33.6456 53.9257 33.7836C51.4352 34.1285 45.7228 35.4495 42.7969 37.9742C39.1395 41.1301 36.9973 45.7346 34.4894 51.8912Z" fill="white"/>
<ellipse cx="76.9149" cy="8.12255" rx="8.20295" ry="8.12255" fill="white"/>
<path d="M87.4167 41.2336L94 14.1239C86.0165 11.2681 77.1935 26.3854 73.78 34.301C78.754 35.8324 84.9436 39.5608 87.4167 41.2336Z" fill="white"/>
</svg>
