<svg width="145" height="108" viewBox="0 0 145 108" fill="none" xmlns="http://www.w3.org/2000/svg">
<path d="M68.0939 36.1629L60.3969 28.3377L60.3463 28.2834L60.3969 50.2917L66.5241 56.4866C61.9161 54.9832 52.1936 51.8567 50.1681 51.3785C48.1425 50.9003 46.3871 52.1936 45.7626 52.9001C40.2599 60.4717 29.1331 75.767 28.6469 76.3756C28.1608 76.9842 27.7354 77.716 27.5835 78.0059C27.0265 79.2738 26.5201 82.2988 28.9508 84.2551C31.3814 86.2114 33.9133 84.8891 34.8754 83.9834L45.4081 69.5829L45.5094 69.6373V93.7105C45.56 95.1415 46.5019 97.9818 49.8642 97.8948C53.2266 97.8079 54.2022 94.8517 54.2697 93.3845V69.0939L61.8654 72.463C68.9952 57.0735 87.6908 59.4573 96.1473 62.5729C96.4309 61.2252 100.958 52.9907 103.186 49.0418C102.416 48.042 100.637 47.1399 99.8439 46.8138C94.7801 45.2488 91.7587 48.6252 90.881 50.5091L88.0452 57.3561L78.6772 50.8351V36.1629H68.0939Z" fill="white"/>
<path d="M60.5488 82.0271C58.6043 87.2004 57.1729 94.5075 56.7003 97.5144L105.92 97.5688L111.389 73.6585C105.556 69.3981 99.5738 66.5941 97.3119 65.7247C95.3033 64.9639 90.5062 63.3554 87.3869 63.0076C84.2676 62.6598 80.7533 62.8627 79.3861 63.0076C76.9724 63.3699 71.436 64.7574 68.6002 67.4092C65.0556 70.7241 62.9794 75.5605 60.5488 82.0271Z" fill="white"/>
<ellipse cx="101.667" cy="36.0542" rx="7.95015" ry="8.53162" fill="white"/>
<path d="M111.845 70.8328L118.225 42.3578C110.488 39.3582 101.937 55.2368 98.6285 63.551C103.449 65.1595 109.448 69.0757 111.845 70.8328Z" fill="white"/>
</svg>
