<svg width="145" height="108" viewBox="0 0 145 108" fill="none" xmlns="http://www.w3.org/2000/svg">
<path d="M79.1067 83.0903C78.1331 86.8529 75.3397 86.4 74.0648 85.7032L80.1499 104.69L83.9748 99.1161L90.7554 101.555L84.6703 82.2194C82.8621 85.0065 80.2078 83.9613 79.1067 83.0903Z" fill="white"/>
<path d="M62.9376 83.9613C60.9904 83.8219 60.5036 81.4645 60.5036 80.3032V79.9548L53.723 101.555L60.5036 98.2452L64.3285 104.69L70.2398 86.2258H70.0659C67.4233 86.3652 66.299 84.1935 66.0671 83.0903C64.9544 83.9264 63.5172 84.0193 62.9376 83.9613Z" fill="white"/>
<path d="M122.224 11.671H22.9496C19.4724 12.2284 17.9077 15.271 17.56 16.7226V83.9613C18.2554 87.0271 21.3269 88.7226 22.7758 89.1871L53.8969 89.0129L54.7662 85.8774L35.8153 85.7032C33.5899 75.5303 24.9201 71.7097 20.8633 71.071V29.4387C30.8777 27.4877 35.004 18.9871 35.8153 14.9806H110.054C111.584 23.76 120.312 28.3935 124.484 29.6129L124.311 71.071C114.853 73.1613 110.865 81.929 110.054 86.0516H89.7122L90.7554 89.0129C99.6803 89.129 118.469 89.2916 122.224 89.0129C125.98 88.7342 127.382 85.529 127.614 83.9613C127.73 62.9419 127.892 20.0671 127.614 16.7226C127.336 13.3781 123.905 11.9613 122.224 11.671Z" fill="white"/>
<path fill-rule="evenodd" clip-rule="evenodd" d="M65.7194 49.2764C64.6067 48.719 63.8649 48.5797 63.6331 48.5797H63.4592C63.1811 48.5797 62.8797 49.2764 62.7638 49.6248C62.7058 50.0313 62.5899 50.9487 62.5899 51.3668C62.5899 51.8893 61.5468 52.5861 61.199 52.7603C60.9209 52.8997 59.5763 52.8184 58.9389 52.7603C58.3825 52.6209 58.2434 52.9345 58.2434 53.1087V54.1539V56.2442C58.2434 56.8016 57.8957 57.1732 57.7218 57.2893L56.1571 57.9861C55.8673 58.1022 55.2182 58.4042 54.94 58.6829C54.6619 58.9616 54.7082 59.3797 54.7662 59.5538C54.8821 59.8442 55.253 60.5642 55.8093 61.1216C56.3657 61.679 56.0412 62.6313 55.8093 63.0377C55.2878 63.5022 54.2098 64.4661 54.0707 64.6055C53.9317 64.7448 53.8969 65.2442 53.8969 65.4764C54.0128 65.8248 54.4532 66.6261 55.2878 67.0442C56.239 67.5207 56.1783 68.5766 56.1602 68.8911C56.1584 68.9215 56.1571 68.945 56.1571 68.9603C56.1571 69.0997 55.4616 70.2958 55.1139 70.8764C54.998 70.9926 54.7662 71.3293 54.7662 71.7474C54.7662 72.1655 55.4616 72.5022 55.8093 72.6184C56.6543 72.8602 56.9126 73.0181 57.2243 73.2087C57.3616 73.2926 57.5092 73.3828 57.7218 73.4893C58.2782 73.768 58.3014 74.5345 58.2434 74.8829C58.1854 75.4635 58.0695 76.7642 58.0695 77.3216C58.0695 77.879 58.5332 78.0184 58.765 78.0184H61.199C62.1727 78.1577 62.532 79.0055 62.5899 79.4119L62.9377 81.6764C63.0767 82.2339 63.691 82.1409 63.9808 82.0248C64.6763 81.6068 65.4297 81.3861 65.7194 81.328H66.4149C66.9712 81.328 67.5739 81.9087 67.8058 82.199C67.8058 82.0597 68.3853 83.07 68.6751 83.5926C69.3705 84.2893 69.7182 84.2893 70.0659 84.2893C70.3441 84.2893 70.7614 83.9409 70.9352 83.7668C71.1091 83.5926 71.5959 83.1397 72.1523 82.7216C72.7086 82.3035 73.4273 82.5474 73.717 82.7216C73.9488 82.8958 74.5516 83.3835 75.1079 83.9409C75.6643 84.4984 76.267 84.4055 76.4988 84.2893C76.777 84.2893 76.9624 83.8248 77.0204 83.5926C77.1595 82.6171 77.8897 81.9087 78.2374 81.6764C79.0719 81.119 79.8601 81.328 80.1499 81.5022C81.1235 82.199 81.8305 82.2571 82.0623 82.199C82.654 81.7544 82.7423 81.562 82.8626 81.2999C82.8836 81.2539 82.9057 81.2058 82.9317 81.1538C83.0707 80.8751 83.1055 79.9926 83.1055 79.5861C82.9664 78.4713 83.9748 78.0764 84.4964 78.0184H86.7566C87.313 78.0184 87.452 77.67 87.452 77.4958V76.4506C87.452 74.5181 87.7053 74.1079 87.8876 73.8126C87.9189 73.7619 87.9481 73.7146 87.9736 73.6635C88.1475 73.3151 88.4952 73.1409 89.8861 72.6184C90.9988 72.2003 91.0452 71.7474 90.9293 71.5732C90.5236 70.8764 89.6775 69.4132 89.5384 69.1345C89.3993 68.8558 89.5963 68.4377 89.7122 68.2635L90.5815 67.2184C91.0452 66.6958 92.0072 65.6158 92.1463 65.4764C92.2854 65.3371 92.0883 65.1861 91.9724 65.128C91.1379 64.71 90.002 63.2119 89.5384 62.5151C89.2602 62.2364 89.6543 61.3539 89.8861 60.9474C90.7206 59.9719 90.8134 59.3797 90.7554 59.2055C90.8945 59.0661 90.5815 58.6829 90.4077 58.5087C90.1295 58.0906 89.3645 57.9861 89.0168 57.9861C87.6259 57.9861 87.3941 56.8248 87.452 56.2442L87.6259 54.328C87.6839 54.1539 87.765 53.7009 87.6259 53.2829C87.4868 52.8648 87.1043 52.7603 86.9305 52.7603H84.3225C83.6271 52.7603 83.1055 51.1926 83.1055 51.0184C83.1055 50.9313 83.062 50.67 83.0186 50.4087C82.9751 50.1474 82.9317 49.8861 82.9317 49.799C82.9317 49.6248 82.4101 48.7539 82.2362 48.7539H81.5408C81.3371 48.7539 80.7754 48.9929 80.3101 49.191C79.9811 49.3311 79.7003 49.4506 79.6283 49.4506H78.5851C78.1679 49.4506 77.5999 48.5216 77.3681 48.0571C77.3681 47.8829 77.1942 47.1861 76.6727 46.8377C76.1511 46.5764 75.8251 46.7071 75.6213 46.7887C75.5534 46.8159 75.4991 46.8377 75.4556 46.8377C75.3165 46.8377 74.0068 47.8829 73.3693 48.4055H72.5C72.3848 48.5209 71.5067 47.7954 70.7753 47.1912L70.7752 47.1911C70.4026 46.8832 70.0681 46.6069 69.8921 46.4893C69.4748 46.2106 69.2546 46.3732 69.1966 46.4893C68.223 48.1616 67.4001 49.0442 67.1103 49.2764H65.7194ZM84.8441 65.3225C84.8441 72.1531 79.3175 77.6903 72.5 77.6903C65.6825 77.6903 60.1559 72.1531 60.1559 65.3225C60.1559 58.492 65.6825 52.9548 72.5 52.9548C79.3175 52.9548 84.8441 58.492 84.8441 65.3225ZM72.5 55.7419L75.4556 61.4903L82.0623 62.5355L77.3681 67.2387L78.4113 73.6838L72.5 70.7225L66.5887 73.858L67.6319 67.2387L62.9377 62.3613L69.3705 61.4903L72.5 55.7419Z" fill="white"/>
<rect x="43.4652" y="26.129" width="58.765" height="3.13548" fill="white"/>
<rect x="43.4652" y="36.5806" width="58.765" height="3.13548" fill="white"/>
</svg>
