<svg width="336" height="66" viewBox="0 0 336 66" fill="none" xmlns="http://www.w3.org/2000/svg">
<g filter="url(#filter0_d_13_19)">
<path d="M256.219 23.4971C256.564 23.5029 256.881 23.4385 257.168 23.3037C257.455 23.1689 257.692 22.9756 257.88 22.7236C258.073 22.4717 258.208 22.1816 258.284 21.8535L260.244 21.8447C260.168 22.5244 259.928 23.1162 259.523 23.6201C259.125 24.124 258.627 24.5137 258.029 24.7891C257.438 25.0586 256.811 25.1875 256.148 25.1758C255.475 25.1641 254.897 25.0264 254.417 24.7627C253.942 24.499 253.559 24.1445 253.266 23.6992C252.973 23.2539 252.768 22.75 252.65 22.1875C252.539 21.6191 252.513 21.0303 252.571 20.4209L252.606 20.1045C252.677 19.4541 252.832 18.8389 253.072 18.2588C253.318 17.6787 253.644 17.166 254.048 16.7207C254.458 16.2695 254.941 15.918 255.498 15.666C256.055 15.4141 256.682 15.2969 257.379 15.3145C258.082 15.3262 258.688 15.4873 259.198 15.7979C259.708 16.1084 260.098 16.5332 260.367 17.0723C260.637 17.6055 260.769 18.2148 260.763 18.9004L258.82 18.8916C258.82 18.5635 258.765 18.2588 258.653 17.9775C258.548 17.6904 258.378 17.459 258.144 17.2832C257.915 17.1016 257.616 17.0049 257.247 16.9932C256.813 16.9814 256.441 17.0664 256.131 17.248C255.826 17.4297 255.571 17.6758 255.366 17.9863C255.167 18.2969 255.009 18.6396 254.892 19.0146C254.78 19.3838 254.704 19.75 254.663 20.1133L254.628 20.4209C254.599 20.7314 254.587 21.0654 254.593 21.4229C254.604 21.7744 254.66 22.1055 254.76 22.416C254.859 22.7266 255.023 22.9814 255.252 23.1807C255.486 23.3799 255.809 23.4854 256.219 23.4971ZM266.818 23.0928L267.539 18.5312C267.574 18.2266 267.554 17.9512 267.478 17.7051C267.401 17.459 267.261 17.2656 267.056 17.125C266.856 16.9785 266.593 16.9023 266.265 16.8965C265.972 16.8906 265.696 16.9404 265.438 17.0459C265.181 17.1455 264.961 17.2949 264.779 17.4941C264.604 17.6934 264.486 17.9365 264.428 18.2236L262.362 18.2324C262.397 17.7344 262.544 17.3008 262.802 16.9316C263.065 16.5566 263.396 16.249 263.795 16.0088C264.199 15.7627 264.633 15.584 265.096 15.4727C265.564 15.3555 266.021 15.2998 266.467 15.3057C267.111 15.3174 267.683 15.4551 268.181 15.7188C268.679 15.9824 269.057 16.3545 269.314 16.835C269.578 17.3154 269.678 17.8955 269.613 18.5752L268.919 22.8115C268.866 23.1455 268.828 23.4883 268.805 23.8398C268.787 24.1855 268.834 24.5195 268.945 24.8418L268.928 25L266.88 25.0088C266.792 24.6982 266.748 24.3818 266.748 24.0596C266.748 23.7314 266.771 23.4092 266.818 23.0928ZM267.776 19.2168L267.565 20.5264L266.194 20.5176C265.913 20.5176 265.623 20.5439 265.324 20.5967C265.031 20.6494 264.756 20.7402 264.498 20.8691C264.24 20.998 264.023 21.1738 263.848 21.3965C263.672 21.6133 263.563 21.8857 263.522 22.2139C263.493 22.4775 263.522 22.7061 263.61 22.8994C263.704 23.0869 263.845 23.2363 264.032 23.3477C264.22 23.459 264.442 23.5176 264.7 23.5234C265.046 23.5293 265.386 23.4619 265.72 23.3213C266.06 23.1807 266.353 22.9814 266.599 22.7236C266.851 22.46 267.023 22.1582 267.117 21.8184L267.671 22.7676C267.542 23.125 267.36 23.4531 267.126 23.752C266.897 24.0508 266.631 24.3086 266.326 24.5254C266.021 24.7422 265.688 24.9092 265.324 25.0264C264.967 25.1436 264.598 25.1992 264.217 25.1934C263.689 25.1816 263.209 25.0615 262.775 24.833C262.342 24.5986 261.999 24.2734 261.747 23.8574C261.495 23.4414 261.384 22.9609 261.413 22.416C261.442 21.8008 261.598 21.2881 261.879 20.8779C262.166 20.4619 262.532 20.1338 262.978 19.8936C263.429 19.6475 263.921 19.4717 264.454 19.3662C264.987 19.2607 265.515 19.208 266.036 19.208L267.776 19.2168ZM274.078 17.4062L272.76 25H270.694L272.347 15.4902H274.307L274.078 17.4062ZM277.172 15.4111L276.943 17.3887C276.809 17.3652 276.671 17.3447 276.53 17.3271C276.396 17.3096 276.261 17.3008 276.126 17.3008C275.769 17.2949 275.446 17.3447 275.159 17.4502C274.872 17.5557 274.62 17.708 274.403 17.9072C274.187 18.1006 274.005 18.335 273.858 18.6104C273.712 18.8799 273.598 19.1816 273.516 19.5156L273.023 19.5508C273.082 19.0879 273.182 18.6074 273.322 18.1094C273.469 17.6113 273.671 17.1484 273.929 16.7207C274.187 16.2871 274.515 15.9385 274.913 15.6748C275.312 15.4053 275.795 15.2764 276.363 15.2881C276.498 15.2881 276.633 15.2998 276.768 15.3232C276.902 15.3467 277.037 15.376 277.172 15.4111ZM284.168 22.7939L287.534 15.4902H288.923L288.132 17.8018L284.774 25H283.535L284.168 22.7939ZM284.177 15.4902L284.555 23.0488L284.344 25H283.052L282.208 15.4902H284.177ZM289.626 22.7324L292.465 15.4902H294.539L290.399 25H289.028L289.626 22.7324ZM289.09 15.4902L289.934 22.9258L289.819 25H288.686L287.763 17.5908L287.789 15.4902H289.09ZM299.795 23.0928L300.516 18.5312C300.551 18.2266 300.53 17.9512 300.454 17.7051C300.378 17.459 300.237 17.2656 300.032 17.125C299.833 16.9785 299.569 16.9023 299.241 16.8965C298.948 16.8906 298.673 16.9404 298.415 17.0459C298.157 17.1455 297.938 17.2949 297.756 17.4941C297.58 17.6934 297.463 17.9365 297.404 18.2236L295.339 18.2324C295.374 17.7344 295.521 17.3008 295.778 16.9316C296.042 16.5566 296.373 16.249 296.771 16.0088C297.176 15.7627 297.609 15.584 298.072 15.4727C298.541 15.3555 298.998 15.2998 299.443 15.3057C300.088 15.3174 300.659 15.4551 301.157 15.7188C301.655 15.9824 302.033 16.3545 302.291 16.835C302.555 17.3154 302.654 17.8955 302.59 18.5752L301.896 22.8115C301.843 23.1455 301.805 23.4883 301.781 23.8398C301.764 24.1855 301.811 24.5195 301.922 24.8418L301.904 25L299.856 25.0088C299.769 24.6982 299.725 24.3818 299.725 24.0596C299.725 23.7314 299.748 23.4092 299.795 23.0928ZM300.753 19.2168L300.542 20.5264L299.171 20.5176C298.89 20.5176 298.6 20.5439 298.301 20.5967C298.008 20.6494 297.732 20.7402 297.475 20.8691C297.217 20.998 297 21.1738 296.824 21.3965C296.648 21.6133 296.54 21.8857 296.499 22.2139C296.47 22.4775 296.499 22.7061 296.587 22.8994C296.681 23.0869 296.821 23.2363 297.009 23.3477C297.196 23.459 297.419 23.5176 297.677 23.5234C298.022 23.5293 298.362 23.4619 298.696 23.3213C299.036 23.1807 299.329 22.9814 299.575 22.7236C299.827 22.46 300 22.1582 300.094 21.8184L300.647 22.7676C300.519 23.125 300.337 23.4531 300.103 23.752C299.874 24.0508 299.607 24.3086 299.303 24.5254C298.998 24.7422 298.664 24.9092 298.301 25.0264C297.943 25.1436 297.574 25.1992 297.193 25.1934C296.666 25.1816 296.186 25.0615 295.752 24.833C295.318 24.5986 294.976 24.2734 294.724 23.8574C294.472 23.4414 294.36 22.9609 294.39 22.416C294.419 21.8008 294.574 21.2881 294.855 20.8779C295.143 20.4619 295.509 20.1338 295.954 19.8936C296.405 19.6475 296.897 19.4717 297.431 19.3662C297.964 19.2607 298.491 19.208 299.013 19.208L300.753 19.2168ZM309.349 22.3721C309.396 22.0498 309.325 21.8008 309.138 21.625C308.95 21.4434 308.716 21.3057 308.435 21.2119C308.153 21.1182 307.896 21.042 307.661 20.9834C307.304 20.8955 306.946 20.7842 306.589 20.6494C306.237 20.5088 305.915 20.333 305.622 20.1221C305.329 19.9111 305.098 19.6533 304.928 19.3486C304.758 19.0381 304.682 18.6689 304.699 18.2412C304.723 17.749 304.852 17.3184 305.086 16.9492C305.32 16.5801 305.622 16.2725 305.991 16.0264C306.366 15.7803 306.776 15.5986 307.222 15.4814C307.667 15.3643 308.109 15.3086 308.549 15.3145C309.164 15.3262 309.729 15.4463 310.245 15.6748C310.767 15.9033 311.183 16.2402 311.493 16.6855C311.81 17.1309 311.965 17.6816 311.959 18.3379L309.902 18.3291C309.914 18.0361 309.861 17.7842 309.744 17.5732C309.633 17.3564 309.469 17.1895 309.252 17.0723C309.035 16.9551 308.774 16.8936 308.47 16.8877C308.206 16.8818 307.945 16.9258 307.688 17.0195C307.436 17.1133 307.219 17.2539 307.037 17.4414C306.855 17.6289 306.744 17.8662 306.703 18.1533C306.668 18.376 306.7 18.5605 306.8 18.707C306.899 18.8477 307.037 18.9619 307.213 19.0498C307.389 19.1377 307.573 19.2109 307.767 19.2695C307.966 19.3223 308.145 19.3662 308.303 19.4014C308.801 19.5361 309.29 19.709 309.771 19.9199C310.251 20.125 310.644 20.415 310.948 20.79C311.253 21.1592 311.391 21.6455 311.361 22.249C311.344 22.7646 311.209 23.21 310.957 23.585C310.705 23.9541 310.383 24.2588 309.99 24.499C309.598 24.7334 309.167 24.9062 308.698 25.0176C308.235 25.1289 307.778 25.1816 307.327 25.1758C306.706 25.1641 306.12 25.0352 305.569 24.7891C305.024 24.543 304.585 24.1885 304.251 23.7256C303.923 23.2568 303.759 22.6855 303.759 22.0117L305.754 22.0205C305.754 22.3604 305.821 22.6475 305.956 22.8818C306.097 23.1162 306.29 23.2949 306.536 23.418C306.788 23.5352 307.081 23.5967 307.415 23.6025C307.69 23.6025 307.966 23.5645 308.241 23.4883C308.522 23.4062 308.763 23.2744 308.962 23.0928C309.167 22.9111 309.296 22.6709 309.349 22.3721ZM317.048 11.5L314.701 25H312.636L314.982 11.5H317.048ZM315.255 19.8936H314.604C314.681 19.3428 314.818 18.7949 315.018 18.25C315.223 17.6992 315.498 17.2012 315.844 16.7559C316.189 16.3047 316.605 15.9473 317.092 15.6836C317.578 15.4199 318.141 15.2969 318.779 15.3145C319.301 15.3262 319.734 15.4287 320.08 15.6221C320.432 15.8154 320.707 16.0791 320.906 16.4131C321.105 16.7412 321.237 17.1191 321.302 17.5469C321.366 17.9688 321.372 18.417 321.319 18.8916L320.3 25H318.217L319.254 18.8652C319.289 18.5195 319.277 18.209 319.219 17.9336C319.16 17.6582 319.031 17.4385 318.832 17.2744C318.633 17.1045 318.343 17.0166 317.962 17.0107C317.552 16.999 317.188 17.0752 316.872 17.2393C316.562 17.4033 316.295 17.626 316.072 17.9072C315.855 18.1885 315.68 18.502 315.545 18.8477C315.41 19.1934 315.313 19.542 315.255 19.8936ZM257.827 43.3721C257.874 43.0498 257.804 42.8008 257.616 42.625C257.429 42.4434 257.194 42.3057 256.913 42.2119C256.632 42.1182 256.374 42.042 256.14 41.9834C255.782 41.8955 255.425 41.7842 255.067 41.6494C254.716 41.5088 254.394 41.333 254.101 41.1221C253.808 40.9111 253.576 40.6533 253.406 40.3486C253.236 40.0381 253.16 39.6689 253.178 39.2412C253.201 38.749 253.33 38.3184 253.564 37.9492C253.799 37.5801 254.101 37.2725 254.47 37.0264C254.845 36.7803 255.255 36.5986 255.7 36.4814C256.146 36.3643 256.588 36.3086 257.027 36.3145C257.643 36.3262 258.208 36.4463 258.724 36.6748C259.245 36.9033 259.661 37.2402 259.972 37.6855C260.288 38.1309 260.443 38.6816 260.438 39.3379L258.381 39.3291C258.393 39.0361 258.34 38.7842 258.223 38.5732C258.111 38.3564 257.947 38.1895 257.73 38.0723C257.514 37.9551 257.253 37.8936 256.948 37.8877C256.685 37.8818 256.424 37.9258 256.166 38.0195C255.914 38.1133 255.697 38.2539 255.516 38.4414C255.334 38.6289 255.223 38.8662 255.182 39.1533C255.146 39.376 255.179 39.5605 255.278 39.707C255.378 39.8477 255.516 39.9619 255.691 40.0498C255.867 40.1377 256.052 40.2109 256.245 40.2695C256.444 40.3223 256.623 40.3662 256.781 40.4014C257.279 40.5361 257.769 40.709 258.249 40.9199C258.729 41.125 259.122 41.415 259.427 41.79C259.731 42.1592 259.869 42.6455 259.84 43.249C259.822 43.7646 259.688 44.21 259.436 44.585C259.184 44.9541 258.861 45.2588 258.469 45.499C258.076 45.7334 257.646 45.9062 257.177 46.0176C256.714 46.1289 256.257 46.1816 255.806 46.1758C255.185 46.1641 254.599 46.0352 254.048 45.7891C253.503 45.543 253.063 45.1885 252.729 44.7256C252.401 44.2568 252.237 43.6855 252.237 43.0117L254.232 43.0205C254.232 43.3604 254.3 43.6475 254.435 43.8818C254.575 44.1162 254.769 44.2949 255.015 44.418C255.267 44.5352 255.56 44.5967 255.894 44.6025C256.169 44.6025 256.444 44.5645 256.72 44.4883C257.001 44.4062 257.241 44.2744 257.44 44.0928C257.646 43.9111 257.774 43.6709 257.827 43.3721ZM265.412 46.1758C264.762 46.1641 264.185 46.0381 263.681 45.7979C263.183 45.5518 262.77 45.2207 262.441 44.8047C262.113 44.3828 261.876 43.8994 261.729 43.3545C261.583 42.8037 261.533 42.2178 261.58 41.5967L261.615 41.2363C261.68 40.5977 261.835 39.9824 262.081 39.3906C262.327 38.793 262.655 38.2627 263.065 37.7998C263.481 37.3311 263.971 36.9619 264.533 36.6924C265.096 36.4229 265.723 36.2969 266.414 36.3145C267.076 36.3262 267.636 36.4639 268.093 36.7275C268.55 36.9912 268.913 37.3428 269.183 37.7822C269.452 38.2158 269.631 38.708 269.719 39.2588C269.812 39.8096 269.827 40.3809 269.763 40.9727L269.64 41.8779H262.503L262.749 40.3574L267.785 40.3662L267.82 40.1816C267.873 39.8125 267.853 39.4639 267.759 39.1357C267.671 38.8076 267.507 38.5381 267.267 38.3271C267.026 38.1162 266.704 38.0049 266.3 37.9932C265.86 37.9814 265.482 38.0723 265.166 38.2656C264.855 38.459 264.598 38.7197 264.393 39.0479C264.188 39.376 264.026 39.7334 263.909 40.1201C263.798 40.501 263.719 40.873 263.672 41.2363L263.637 41.5879C263.602 41.9336 263.61 42.2764 263.663 42.6162C263.716 42.9561 263.818 43.2666 263.971 43.5479C264.123 43.8232 264.334 44.0488 264.604 44.2246C264.873 44.3945 265.207 44.4854 265.605 44.4971C266.104 44.5088 266.555 44.4062 266.959 44.1895C267.369 43.9668 267.741 43.6797 268.075 43.3281L269.095 44.4092C268.825 44.8135 268.491 45.1475 268.093 45.4111C267.7 45.6748 267.272 45.8711 266.81 46C266.353 46.123 265.887 46.1816 265.412 46.1758ZM273.885 38.4062L272.566 46H270.501L272.153 36.4902H274.113L273.885 38.4062ZM276.979 36.4111L276.75 38.3887C276.615 38.3652 276.478 38.3447 276.337 38.3271C276.202 38.3096 276.067 38.3008 275.933 38.3008C275.575 38.2949 275.253 38.3447 274.966 38.4502C274.679 38.5557 274.427 38.708 274.21 38.9072C273.993 39.1006 273.812 39.335 273.665 39.6104C273.519 39.8799 273.404 40.1816 273.322 40.5156L272.83 40.5508C272.889 40.0879 272.988 39.6074 273.129 39.1094C273.275 38.6113 273.478 38.1484 273.735 37.7207C273.993 37.2871 274.321 36.9385 274.72 36.6748C275.118 36.4053 275.602 36.2764 276.17 36.2881C276.305 36.2881 276.439 36.2998 276.574 36.3232C276.709 36.3467 276.844 36.376 276.979 36.4111ZM280.178 44.2334L283.623 36.4902H285.838L281.136 46H279.756L280.178 44.2334ZM279.642 36.4902L280.731 44.4531L280.591 46H279.299L277.559 36.4902H279.642ZM289.345 36.4902L287.692 46H285.627L287.279 36.4902H289.345ZM287.569 34.0293C287.563 33.6895 287.675 33.4111 287.903 33.1943C288.132 32.9775 288.413 32.8662 288.747 32.8604C289.069 32.8545 289.345 32.9541 289.573 33.1592C289.808 33.3584 289.925 33.625 289.925 33.959C289.931 34.2988 289.816 34.5742 289.582 34.7852C289.354 34.9961 289.075 35.1045 288.747 35.1104C288.425 35.1162 288.149 35.0225 287.921 34.8291C287.692 34.6299 287.575 34.3633 287.569 34.0293ZM294.012 44.4971C294.357 44.5029 294.674 44.4385 294.961 44.3037C295.248 44.1689 295.485 43.9756 295.673 43.7236C295.866 43.4717 296.001 43.1816 296.077 42.8535L298.037 42.8447C297.961 43.5244 297.721 44.1162 297.316 44.6201C296.918 45.124 296.42 45.5137 295.822 45.7891C295.23 46.0586 294.604 46.1875 293.941 46.1758C293.268 46.1641 292.69 46.0264 292.21 45.7627C291.735 45.499 291.352 45.1445 291.059 44.6992C290.766 44.2539 290.561 43.75 290.443 43.1875C290.332 42.6191 290.306 42.0303 290.364 41.4209L290.399 41.1045C290.47 40.4541 290.625 39.8389 290.865 39.2588C291.111 38.6787 291.437 38.166 291.841 37.7207C292.251 37.2695 292.734 36.918 293.291 36.666C293.848 36.4141 294.475 36.2969 295.172 36.3145C295.875 36.3262 296.481 36.4873 296.991 36.7979C297.501 37.1084 297.891 37.5332 298.16 38.0723C298.43 38.6055 298.562 39.2148 298.556 39.9004L296.613 39.8916C296.613 39.5635 296.558 39.2588 296.446 38.9775C296.341 38.6904 296.171 38.459 295.937 38.2832C295.708 38.1016 295.409 38.0049 295.04 37.9932C294.606 37.9814 294.234 38.0664 293.924 38.248C293.619 38.4297 293.364 38.6758 293.159 38.9863C292.96 39.2969 292.802 39.6396 292.685 40.0146C292.573 40.3838 292.497 40.75 292.456 41.1133L292.421 41.4209C292.392 41.7314 292.38 42.0654 292.386 42.4229C292.397 42.7744 292.453 43.1055 292.553 43.416C292.652 43.7266 292.816 43.9814 293.045 44.1807C293.279 44.3799 293.602 44.4854 294.012 44.4971ZM303.328 46.1758C302.678 46.1641 302.101 46.0381 301.597 45.7979C301.099 45.5518 300.686 45.2207 300.357 44.8047C300.029 44.3828 299.792 43.8994 299.646 43.3545C299.499 42.8037 299.449 42.2178 299.496 41.5967L299.531 41.2363C299.596 40.5977 299.751 39.9824 299.997 39.3906C300.243 38.793 300.571 38.2627 300.981 37.7998C301.397 37.3311 301.887 36.9619 302.449 36.6924C303.012 36.4229 303.639 36.2969 304.33 36.3145C304.992 36.3262 305.552 36.4639 306.009 36.7275C306.466 36.9912 306.829 37.3428 307.099 37.7822C307.368 38.2158 307.547 38.708 307.635 39.2588C307.729 39.8096 307.743 40.3809 307.679 40.9727L307.556 41.8779H300.419L300.665 40.3574L305.701 40.3662L305.736 40.1816C305.789 39.8125 305.769 39.4639 305.675 39.1357C305.587 38.8076 305.423 38.5381 305.183 38.3271C304.942 38.1162 304.62 38.0049 304.216 37.9932C303.776 37.9814 303.398 38.0723 303.082 38.2656C302.771 38.459 302.514 38.7197 302.309 39.0479C302.104 39.376 301.942 39.7334 301.825 40.1201C301.714 40.501 301.635 40.873 301.588 41.2363L301.553 41.5879C301.518 41.9336 301.526 42.2764 301.579 42.6162C301.632 42.9561 301.734 43.2666 301.887 43.5479C302.039 43.8232 302.25 44.0488 302.52 44.2246C302.789 44.3945 303.123 44.4854 303.521 44.4971C304.02 44.5088 304.471 44.4062 304.875 44.1895C305.285 43.9668 305.657 43.6797 305.991 43.3281L307.011 44.4092C306.741 44.8135 306.407 45.1475 306.009 45.4111C305.616 45.6748 305.188 45.8711 304.726 46C304.269 46.123 303.803 46.1816 303.328 46.1758ZM314.095 43.3721C314.142 43.0498 314.071 42.8008 313.884 42.625C313.696 42.4434 313.462 42.3057 313.181 42.2119C312.899 42.1182 312.642 42.042 312.407 41.9834C312.05 41.8955 311.692 41.7842 311.335 41.6494C310.983 41.5088 310.661 41.333 310.368 41.1221C310.075 40.9111 309.844 40.6533 309.674 40.3486C309.504 40.0381 309.428 39.6689 309.445 39.2412C309.469 38.749 309.598 38.3184 309.832 37.9492C310.066 37.5801 310.368 37.2725 310.737 37.0264C311.112 36.7803 311.522 36.5986 311.968 36.4814C312.413 36.3643 312.855 36.3086 313.295 36.3145C313.91 36.3262 314.476 36.4463 314.991 36.6748C315.513 36.9033 315.929 37.2402 316.239 37.6855C316.556 38.1309 316.711 38.6816 316.705 39.3379L314.648 39.3291C314.66 39.0361 314.607 38.7842 314.49 38.5732C314.379 38.3564 314.215 38.1895 313.998 38.0723C313.781 37.9551 313.521 37.8936 313.216 37.8877C312.952 37.8818 312.691 37.9258 312.434 38.0195C312.182 38.1133 311.965 38.2539 311.783 38.4414C311.602 38.6289 311.49 38.8662 311.449 39.1533C311.414 39.376 311.446 39.5605 311.546 39.707C311.646 39.8477 311.783 39.9619 311.959 40.0498C312.135 40.1377 312.319 40.2109 312.513 40.2695C312.712 40.3223 312.891 40.3662 313.049 40.4014C313.547 40.5361 314.036 40.709 314.517 40.9199C314.997 41.125 315.39 41.415 315.694 41.79C315.999 42.1592 316.137 42.6455 316.107 43.249C316.09 43.7646 315.955 44.21 315.703 44.585C315.451 44.9541 315.129 45.2588 314.736 45.499C314.344 45.7334 313.913 45.9062 313.444 46.0176C312.981 46.1289 312.524 46.1816 312.073 46.1758C311.452 46.1641 310.866 46.0352 310.315 45.7891C309.771 45.543 309.331 45.1885 308.997 44.7256C308.669 44.2568 308.505 43.6855 308.505 43.0117L310.5 43.0205C310.5 43.3604 310.567 43.6475 310.702 43.8818C310.843 44.1162 311.036 44.2949 311.282 44.418C311.534 44.5352 311.827 44.5967 312.161 44.6025C312.437 44.6025 312.712 44.5645 312.987 44.4883C313.269 44.4062 313.509 44.2744 313.708 44.0928C313.913 43.9111 314.042 43.6709 314.095 43.3721Z" fill="white"/>
<path d="M20.7539 14.5562L6.80127 42H0.956543L18.1831 10.0078H21.9404L20.7539 14.5562ZM23.7861 42L19.2598 13.9629L19.5894 10.0078H23.083L29.2573 42H23.7861ZM25.3462 30.1348L24.5771 34.5073H7.6582L8.42725 30.1348H25.3462ZM44.77 51.1406L49.7139 22.6421L51.0103 18.2256H55.6904L49.9556 51.1406H44.77ZM33.3882 30.5083L33.4541 30.0469C33.6299 28.582 33.9668 27.1172 34.4648 25.6523C34.9775 24.1729 35.666 22.8325 36.5303 21.6313C37.4092 20.4302 38.4858 19.478 39.7603 18.7749C41.0347 18.0718 42.5288 17.7349 44.2427 17.7642C45.7661 17.8081 47.0259 18.1963 48.022 18.9287C49.0181 19.6465 49.8018 20.584 50.373 21.7412C50.959 22.8838 51.3545 24.1289 51.5596 25.4766C51.7646 26.8096 51.8379 28.1206 51.7793 29.4097L51.6035 30.9038C51.3545 32.2808 50.9443 33.6577 50.373 35.0347C49.8164 36.4116 49.0913 37.6714 48.1978 38.814C47.3042 39.9419 46.2422 40.8428 45.0117 41.5166C43.7812 42.1904 42.3823 42.5054 40.8149 42.4614C39.2183 42.4028 37.9072 42.0073 36.8818 41.2749C35.8564 40.5278 35.0654 39.5684 34.5088 38.3965C33.9521 37.2246 33.5859 35.9502 33.4102 34.5732C33.249 33.1816 33.2417 31.8267 33.3882 30.5083ZM38.6616 30.0469L38.5957 30.5083C38.5078 31.2554 38.4712 32.0684 38.4858 32.9473C38.5151 33.8262 38.647 34.6611 38.8813 35.4521C39.1157 36.2432 39.5039 36.9023 40.0459 37.4297C40.6025 37.9424 41.3789 38.2207 42.375 38.2646C43.5615 38.3086 44.6089 38.0449 45.5171 37.4736C46.4253 36.9023 47.1797 36.1479 47.7803 35.2104C48.3809 34.2583 48.813 33.2549 49.0767 32.2002L49.6919 28.1792C49.7358 27.4321 49.6846 26.6997 49.5381 25.9819C49.3916 25.2495 49.1353 24.5903 48.769 24.0044C48.4175 23.4185 47.9487 22.9424 47.3628 22.5762C46.7915 22.1953 46.0884 21.9976 45.2534 21.9829C44.1548 21.9536 43.2173 22.1807 42.4409 22.6641C41.6646 23.1475 41.0127 23.7993 40.4854 24.6196C39.9727 25.4253 39.5625 26.3042 39.2549 27.2563C38.9619 28.2085 38.7642 29.1387 38.6616 30.0469ZM71.9062 36.1333L75.0044 18.2256H80.1899L76.0591 42H71.1812L71.9062 36.1333ZM73.3564 31.4531L75.0703 31.3872C74.8945 32.8228 74.5723 34.2144 74.1035 35.562C73.6348 36.895 72.9976 38.0889 72.1919 39.1436C71.3862 40.1982 70.3828 41.0259 69.1816 41.6265C67.9805 42.2271 66.5669 42.5054 64.9409 42.4614C63.6372 42.4175 62.5386 42.1611 61.645 41.6924C60.7661 41.209 60.0703 40.5571 59.5576 39.7368C59.0449 38.9165 58.7007 37.979 58.5249 36.9243C58.3638 35.8696 58.3418 34.7563 58.459 33.5845L61.0298 18.2256H66.1934L63.6006 33.6504C63.5566 34.2217 63.5566 34.771 63.6006 35.2983C63.6445 35.8257 63.769 36.3018 63.9741 36.7266C64.1792 37.1514 64.4795 37.4956 64.875 37.7593C65.2852 38.0083 65.8198 38.1475 66.479 38.1768C67.8853 38.2207 69.0571 37.9497 69.9946 37.3638C70.9468 36.7632 71.6938 35.9429 72.2358 34.9028C72.7925 33.8628 73.166 32.7129 73.3564 31.4531ZM95.1973 37.2319L96.999 25.8281C97.0869 25.0664 97.0356 24.3779 96.8452 23.7627C96.6548 23.1475 96.3032 22.6641 95.7905 22.3125C95.2925 21.9463 94.6333 21.7559 93.813 21.7412C93.0806 21.7266 92.3921 21.8511 91.7476 22.1147C91.103 22.3638 90.5537 22.7373 90.0996 23.2354C89.6602 23.7334 89.3672 24.3413 89.2207 25.0591L84.0571 25.0811C84.145 23.8359 84.5112 22.752 85.1558 21.8291C85.8149 20.8916 86.6426 20.1226 87.6387 19.522C88.6494 18.9067 89.7334 18.46 90.8906 18.1816C92.0625 17.8887 93.2051 17.7495 94.3184 17.7642C95.9297 17.7935 97.3579 18.1377 98.603 18.7969C99.8481 19.4561 100.793 20.3862 101.438 21.5874C102.097 22.7886 102.346 24.2388 102.185 25.938L100.449 36.5288C100.317 37.3638 100.222 38.2207 100.163 39.0996C100.119 39.9639 100.236 40.7988 100.515 41.6045L100.471 42L95.3511 42.022C95.1313 41.2456 95.0215 40.4546 95.0215 39.6489C95.0215 38.8286 95.0801 38.0229 95.1973 37.2319ZM97.5923 27.542L97.0649 30.8159L93.6372 30.7939C92.9341 30.7939 92.209 30.8599 91.4619 30.9917C90.7295 31.1235 90.041 31.3506 89.3965 31.6729C88.752 31.9951 88.21 32.4346 87.7705 32.9912C87.3311 33.5332 87.0601 34.2144 86.9575 35.0347C86.8843 35.6938 86.9575 36.2651 87.1772 36.7485C87.4116 37.2173 87.7632 37.5908 88.2319 37.8691C88.7007 38.1475 89.2573 38.2939 89.9019 38.3086C90.7661 38.3232 91.6157 38.1548 92.4507 37.8032C93.3003 37.4517 94.0327 36.9536 94.6479 36.3091C95.2778 35.6499 95.71 34.8955 95.9443 34.0459L97.3286 36.4189C97.0063 37.3125 96.5522 38.1328 95.9663 38.8799C95.395 39.627 94.7285 40.2715 93.9668 40.8135C93.2051 41.3555 92.3701 41.7729 91.4619 42.0659C90.5684 42.3589 89.6455 42.498 88.6934 42.4834C87.375 42.4541 86.1738 42.1538 85.0898 41.5825C84.0059 40.9966 83.1489 40.1836 82.519 39.1436C81.8892 38.1035 81.6108 36.9023 81.6841 35.54C81.7573 34.002 82.1455 32.7202 82.8486 31.6948C83.5664 30.6548 84.4819 29.8345 85.5952 29.2339C86.7231 28.6187 87.9536 28.1792 89.2866 27.9155C90.6196 27.6519 91.938 27.52 93.2417 27.52L97.5923 27.542ZM113.259 23.3672L110.029 42H104.843L108.974 18.2256H113.852L113.259 23.3672ZM111.479 29.2339H109.765C109.941 27.7837 110.278 26.3701 110.776 24.9932C111.289 23.6016 111.977 22.3564 112.841 21.2578C113.706 20.1592 114.76 19.2949 116.005 18.665C117.25 18.0352 118.693 17.7422 120.334 17.7861C121.55 17.8154 122.568 18.0571 123.388 18.5112C124.223 18.9653 124.89 19.5806 125.388 20.3569C125.886 21.1333 126.215 22.0195 126.376 23.0156C126.538 23.9971 126.567 25.0444 126.464 26.1577L123.828 42H118.642L121.235 26.5972C121.337 25.7476 121.308 24.9858 121.147 24.312C120.986 23.6235 120.649 23.0742 120.136 22.6641C119.638 22.2539 118.92 22.0342 117.983 22.0049C116.943 21.9756 116.042 22.166 115.28 22.5762C114.519 22.9863 113.881 23.543 113.369 24.2461C112.871 24.9492 112.46 25.7402 112.138 26.6191C111.831 27.4834 111.611 28.355 111.479 29.2339ZM126.025 27.8276L123.52 28.377C123.681 27 124.018 25.6743 124.531 24.3999C125.058 23.1108 125.754 21.9683 126.618 20.9722C127.497 19.9614 128.537 19.1704 129.738 18.5991C130.939 18.0132 132.302 17.7349 133.825 17.7642C135.114 17.7935 136.198 18.0498 137.077 18.5332C137.956 19.002 138.645 19.6465 139.143 20.4668C139.655 21.2871 139.992 22.2246 140.153 23.2793C140.314 24.3193 140.329 25.4326 140.197 26.6191L137.626 42H132.441L135.034 26.5752C135.136 25.7109 135.107 24.9419 134.946 24.2681C134.799 23.5796 134.477 23.0376 133.979 22.6421C133.481 22.2466 132.756 22.0415 131.804 22.0269C130.954 21.9976 130.192 22.144 129.519 22.4663C128.859 22.7739 128.288 23.2061 127.805 23.7627C127.336 24.3047 126.955 24.9272 126.662 25.6304C126.369 26.3335 126.157 27.0659 126.025 27.8276ZM156.809 37.2319L158.61 25.8281C158.698 25.0664 158.647 24.3779 158.457 23.7627C158.266 23.1475 157.915 22.6641 157.402 22.3125C156.904 21.9463 156.245 21.7559 155.424 21.7412C154.692 21.7266 154.003 21.8511 153.359 22.1147C152.714 22.3638 152.165 22.7373 151.711 23.2354C151.271 23.7334 150.979 24.3413 150.832 25.0591L145.668 25.0811C145.756 23.8359 146.123 22.752 146.767 21.8291C147.426 20.8916 148.254 20.1226 149.25 19.522C150.261 18.9067 151.345 18.46 152.502 18.1816C153.674 17.8887 154.816 17.7495 155.93 17.7642C157.541 17.7935 158.969 18.1377 160.214 18.7969C161.459 19.4561 162.404 20.3862 163.049 21.5874C163.708 22.7886 163.957 24.2388 163.796 25.938L162.06 36.5288C161.928 37.3638 161.833 38.2207 161.774 39.0996C161.73 39.9639 161.848 40.7988 162.126 41.6045L162.082 42L156.962 42.022C156.743 41.2456 156.633 40.4546 156.633 39.6489C156.633 38.8286 156.691 38.0229 156.809 37.2319ZM159.204 27.542L158.676 30.8159L155.249 30.7939C154.545 30.7939 153.82 30.8599 153.073 30.9917C152.341 31.1235 151.652 31.3506 151.008 31.6729C150.363 31.9951 149.821 32.4346 149.382 32.9912C148.942 33.5332 148.671 34.2144 148.569 35.0347C148.496 35.6938 148.569 36.2651 148.789 36.7485C149.023 37.2173 149.375 37.5908 149.843 37.8691C150.312 38.1475 150.869 38.2939 151.513 38.3086C152.377 38.3232 153.227 38.1548 154.062 37.8032C154.912 37.4517 155.644 36.9536 156.259 36.3091C156.889 35.6499 157.321 34.8955 157.556 34.0459L158.94 36.4189C158.618 37.3125 158.164 38.1328 157.578 38.8799C157.006 39.627 156.34 40.2715 155.578 40.8135C154.816 41.3555 153.981 41.7729 153.073 42.0659C152.18 42.3589 151.257 42.498 150.305 42.4834C148.986 42.4541 147.785 42.1538 146.701 41.5825C145.617 40.9966 144.76 40.1836 144.13 39.1436C143.5 38.1035 143.222 36.9023 143.295 35.54C143.369 34.002 143.757 32.7202 144.46 31.6948C145.178 30.6548 146.093 29.8345 147.207 29.2339C148.334 28.6187 149.565 28.1792 150.898 27.9155C152.231 27.6519 153.549 27.52 154.853 27.52L159.204 27.542ZM174.958 23.0156L171.662 42H166.499L170.629 18.2256H175.529L174.958 23.0156ZM182.692 18.0278L182.121 22.9717C181.784 22.9131 181.44 22.8618 181.088 22.8179C180.751 22.7739 180.415 22.752 180.078 22.752C179.184 22.7373 178.378 22.8618 177.661 23.1255C176.943 23.3892 176.313 23.77 175.771 24.2681C175.229 24.7515 174.775 25.3374 174.409 26.0259C174.042 26.6997 173.757 27.4541 173.552 28.2891L172.321 28.377C172.468 27.2197 172.717 26.0186 173.068 24.7734C173.435 23.5283 173.94 22.3711 174.584 21.3018C175.229 20.2178 176.049 19.3462 177.045 18.687C178.042 18.0132 179.25 17.6909 180.671 17.7202C181.008 17.7202 181.345 17.7495 181.682 17.8081C182.019 17.8667 182.355 17.9399 182.692 18.0278ZM191.547 18.2256L187.417 42H182.253L186.384 18.2256H191.547ZM187.109 12.0732C187.094 11.2236 187.373 10.5278 187.944 9.98584C188.515 9.44385 189.218 9.16553 190.053 9.15088C190.859 9.13623 191.547 9.38525 192.119 9.89795C192.705 10.396 192.998 11.0625 192.998 11.8975C193.012 12.7471 192.727 13.4355 192.141 13.9629C191.569 14.4902 190.874 14.7612 190.053 14.7759C189.248 14.7905 188.559 14.5562 187.988 14.0728C187.417 13.5747 187.124 12.9082 187.109 12.0732ZM201.325 23.6089L198.139 42H192.954L197.084 18.2256H201.94L201.325 23.6089ZM199.501 29.2339L197.919 29.2559C198.095 27.835 198.439 26.436 198.952 25.0591C199.479 23.6675 200.175 22.4224 201.04 21.3237C201.904 20.2104 202.951 19.3315 204.182 18.687C205.427 18.0425 206.862 17.7422 208.488 17.7861C209.777 17.8154 210.847 18.0718 211.696 18.5552C212.561 19.0386 213.227 19.6904 213.696 20.5107C214.179 21.3311 214.494 22.2686 214.641 23.3232C214.787 24.3779 214.794 25.4839 214.663 26.6411L212.114 42H206.906L209.499 26.5752C209.587 25.7256 209.558 24.9639 209.411 24.29C209.265 23.6016 208.942 23.0596 208.444 22.6641C207.946 22.2539 207.229 22.0415 206.291 22.0269C205.266 21.9976 204.365 22.188 203.588 22.5981C202.812 23.0083 202.146 23.5723 201.589 24.29C201.032 24.9932 200.578 25.7769 200.227 26.6411C199.89 27.5054 199.648 28.3696 199.501 29.2339ZM228 42.4395C226.374 42.4102 224.931 42.0952 223.671 41.4946C222.426 40.8794 221.394 40.0518 220.573 39.0117C219.753 37.957 219.16 36.7485 218.793 35.3862C218.427 34.0093 218.303 32.5444 218.42 30.9917L218.508 30.0908C218.669 28.4941 219.057 26.9561 219.672 25.4766C220.288 23.9824 221.108 22.6567 222.133 21.4995C223.173 20.3276 224.396 19.4048 225.803 18.731C227.209 18.0571 228.776 17.7422 230.505 17.7861C232.16 17.8154 233.559 18.1597 234.702 18.8188C235.844 19.478 236.752 20.3569 237.426 21.4556C238.1 22.5396 238.547 23.77 238.767 25.147C239.001 26.5239 239.038 27.9521 238.876 29.4316L238.569 31.6948H220.727L221.342 27.8936L233.933 27.9155L234.021 27.4541C234.152 26.5312 234.101 25.6597 233.867 24.8394C233.647 24.019 233.237 23.3452 232.636 22.8179C232.036 22.2905 231.23 22.0122 230.219 21.9829C229.121 21.9536 228.176 22.1807 227.385 22.6641C226.608 23.1475 225.964 23.7993 225.451 24.6196C224.938 25.4399 224.536 26.3335 224.243 27.3003C223.964 28.2524 223.767 29.1826 223.649 30.0908L223.562 30.9697C223.474 31.834 223.496 32.6909 223.627 33.5405C223.759 34.3901 224.016 35.1665 224.396 35.8696C224.777 36.5581 225.305 37.1221 225.979 37.5615C226.652 37.9863 227.487 38.2134 228.483 38.2427C229.729 38.272 230.856 38.0156 231.867 37.4736C232.893 36.917 233.823 36.1992 234.658 35.3203L237.207 38.0229C236.533 39.0337 235.698 39.8687 234.702 40.5278C233.72 41.187 232.651 41.6777 231.494 42C230.351 42.3076 229.187 42.4541 228 42.4395Z" fill="white"/>
</g>
<defs>
<filter id="filter0_d_13_19" x="0.956543" y="9.12891" width="332.442" height="50.0117" filterUnits="userSpaceOnUse" color-interpolation-filters="sRGB">
<feFlood flood-opacity="0" result="BackgroundImageFix"/>
<feColorMatrix in="SourceAlpha" type="matrix" values="0 0 0 0 0 0 0 0 0 0 0 0 0 0 0 0 0 0 127 0" result="hardAlpha"/>
<feOffset dx="8" dy="4"/>
<feGaussianBlur stdDeviation="2"/>
<feComposite in2="hardAlpha" operator="out"/>
<feColorMatrix type="matrix" values="0 0 0 0 0 0 0 0 0 0 0 0 0 0 0 0 0 0 0.25 0"/>
<feBlend mode="normal" in2="BackgroundImageFix" result="effect1_dropShadow_13_19"/>
<feBlend mode="normal" in="SourceGraphic" in2="effect1_dropShadow_13_19" result="shape"/>
</filter>
</defs>
</svg>
